<?xml version="1.0" standalone="no"?>
<!DOCTYPE svg PUBLIC "-//W3C//DTD SVG 20010904//EN"
 "http://www.w3.org/TR/2001/REC-SVG-20010904/DTD/svg10.dtd">
<svg version="1.0" xmlns="http://www.w3.org/2000/svg"
 width="1000.000000pt" height="1000.000000pt" viewBox="0 0 1000.000000 1000.000000"
 preserveAspectRatio="xMidYMid meet">
<metadata>
Created by potrace 1.14, written by Peter Selinger 2001-2017
</metadata>
<g transform="translate(0.000000,1000.000000) scale(0.100000,-0.100000)"
fill="#000000" stroke="none">
<path d="M4770 9913 c-1582 -70 -3028 -892 -3905 -2218 -762 -1151 -1003
-2586 -660 -3930 351 -1378 1279 -2537 2550 -3185 442 -225 915 -380 1412
-464 307 -52 430 -61 828 -60 400 0 567 13 874 70 1794 330 3253 1608 3814
3340 103 316 173 646 214 1006 28 240 25 819 -6 1067 -119 985 -491 1853
-1120 2611 -123 148 -463 490 -611 612 -465 385 -944 661 -1497 863 -589 214
-1260 316 -1893 288z m-1285 -871 c21 -15 47 -80 40 -101 -4 -12 -2 -21 4 -21
6 0 11 -7 11 -15 0 -8 9 -15 20 -15 13 0 20 7 20 20 0 11 5 20 11 20 5 0 7 -6
3 -12 -5 -9 -2 -9 9 1 14 11 17 11 18 0 0 -8 4 -5 10 6 7 15 8 10 4 -20 -2
-22 -9 -41 -15 -43 -16 -6 -12 -72 4 -72 8 0 13 -7 12 -16 -2 -25 18 -27 43
-4 13 11 28 17 32 14 15 -9 10 -33 -10 -51 -11 -9 -18 -20 -15 -25 3 -4 -2 -8
-10 -8 -8 0 -17 8 -19 18 -2 9 -4 3 -3 -15 0 -17 5 -29 9 -26 7 4 6 -14 -5
-57 -1 -8 -10 -20 -18 -27 -12 -10 -13 -15 -2 -30 7 -10 19 -33 27 -50 9 -18
20 -33 25 -33 12 0 13 11 0 30 -6 9 -5 20 3 29 10 12 9 14 -5 8 -10 -3 -20 -2
-23 3 -6 9 30 6 56 -5 10 -3 20 -2 24 4 10 16 25 13 19 -4 -3 -8 -9 -14 -12
-13 -19 2 -32 -3 -32 -13 0 -5 4 -8 9 -5 18 11 32 -24 30 -76 -2 -74 -1 -78
17 -78 13 0 15 -6 9 -27 -4 -16 -9 -37 -11 -48 -10 -55 -17 -81 -25 -95 -4 -8
-11 -37 -15 -65 -4 -29 -9 -42 -12 -30 -9 42 -22 66 -32 60 -8 -5 -7 -12 2
-23 10 -12 10 -14 1 -8 -12 7 -18 -17 -14 -53 2 -8 -2 -10 -10 -5 -9 5 -10 2
-6 -10 4 -10 -5 -52 -19 -94 -14 -42 -23 -84 -21 -93 2 -9 -4 -21 -15 -28 -15
-9 -17 -15 -8 -26 9 -11 7 -16 -7 -23 -11 -6 -26 -37 -37 -76 -10 -36 -25 -71
-32 -77 -8 -6 -14 -18 -14 -25 0 -8 -4 -14 -9 -14 -9 0 -51 -94 -51 -115 0 -7
-9 -15 -21 -18 -12 -3 -18 -10 -15 -15 3 -6 -1 -12 -9 -16 -8 -3 -15 -14 -15
-25 0 -14 -5 -19 -15 -15 -10 4 -15 0 -15 -10 0 -20 -40 -77 -50 -71 -4 2 -18
-7 -31 -21 -20 -21 -21 -27 -9 -34 12 -8 10 -10 -7 -10 -14 0 -23 -6 -23 -16
0 -8 -4 -13 -9 -9 -5 3 -16 -2 -24 -10 -9 -8 -19 -15 -24 -15 -17 1 -54 40
-56 60 -1 11 -5 20 -10 20 -5 0 -7 15 -6 33 2 21 -1 31 -9 29 -15 -3 -16 15
-1 20 8 3 9 15 4 36 -3 18 -11 30 -16 26 -5 -3 -6 -11 -2 -17 17 -27 11 -34
-18 -20 -16 8 -29 20 -29 26 0 7 4 6 10 -3 5 -8 13 -11 17 -6 4 4 -1 14 -11
22 -11 7 -21 12 -23 10 -6 -6 -15 -50 -14 -71 0 -16 -2 -17 -9 -5 -5 8 -10 27
-10 42 0 15 -8 32 -17 37 -14 8 -15 10 -3 11 11 0 12 2 2 8 -7 5 -14 18 -17
30 -7 37 -15 44 -33 30 -14 -12 -14 -10 -3 10 10 18 9 22 -3 22 -9 0 -13 9
-12 24 3 22 1 23 -21 13 -21 -9 -22 -12 -8 -27 8 -9 12 -20 8 -25 -5 -4 0 -5
9 -2 12 4 15 2 11 -8 -3 -8 -10 -12 -16 -8 -6 4 -7 1 -1 -8 5 -8 7 -22 5 -33
-1 -11 2 -16 8 -12 6 4 11 0 11 -9 0 -10 6 -15 13 -12 10 4 13 -2 9 -18 -2
-13 -13 -26 -24 -28 -17 -5 -19 -2 -15 21 l5 27 -19 -24 c-16 -19 -22 -21 -35
-11 -8 7 -13 19 -10 26 3 7 -2 15 -11 18 -11 5 -14 2 -9 -10 5 -14 4 -15 -8
-5 -11 9 -15 9 -19 -1 -8 -20 -36 19 -30 41 3 10 -2 21 -10 24 -11 4 -13 0
-10 -14 5 -17 1 -19 -26 -17 -17 1 -31 6 -31 10 0 4 -4 8 -10 8 -5 0 -10 -8
-10 -17 0 -15 -2 -16 -10 -3 -5 8 -13 15 -17 16 -22 2 -43 18 -41 29 2 8 -1
14 -5 14 -21 1 -77 90 -77 123 0 10 -4 27 -10 38 -5 11 -14 28 -19 38 -5 11
-5 25 1 37 7 12 7 16 0 11 -13 -8 -13 33 0 50 5 7 9 29 8 50 -1 77 0 86 12
107 7 12 11 26 10 30 -1 5 7 16 19 26 23 18 19 44 -5 35 -12 -5 -12 2 -4 35
11 42 28 56 28 23 0 -10 7 -19 14 -19 11 0 12 5 5 18 -7 14 -4 21 13 33 18 13
19 16 5 16 -9 0 -17 -5 -17 -11 0 -8 -4 -8 -14 0 -12 10 -11 17 4 49 10 20 16
40 14 43 -2 4 2 12 10 18 8 7 12 21 8 33 -4 18 -2 20 21 16 15 -3 24 -1 21 3
-3 5 -12 9 -19 9 -9 0 -12 6 -9 15 4 8 10 13 15 10 12 -8 59 5 59 17 0 5 -4 7
-9 4 -5 -3 -12 1 -15 10 -11 28 -7 36 17 29 20 -7 21 -6 4 7 -20 15 -15 43 11
53 13 5 13 2 -3 -15 -10 -11 -15 -23 -12 -27 4 -3 7 -1 7 5 0 7 7 12 16 12 13
0 15 7 11 36 -5 30 -3 37 13 41 11 3 20 14 20 24 0 12 11 23 26 29 32 13 54
34 54 54 0 9 4 16 8 16 10 0 32 39 36 63 1 10 14 31 28 47 16 18 21 31 14 34
-6 3 3 3 19 -1 41 -8 45 -11 61 -48 16 -38 2 -78 -32 -94 -24 -11 -28 -41 -5
-41 14 0 14 -2 1 -9 -8 -6 -18 -7 -22 -5 -4 3 -8 0 -8 -6 0 -6 -4 -8 -10 -5
-21 13 -9 -13 12 -27 23 -15 23 -16 5 -52 -9 -20 -17 -41 -17 -47 0 -13 41
-48 55 -49 6 0 3 4 -5 10 -22 14 -5 23 20 10 27 -15 37 -6 19 17 -8 9 -9 14
-4 11 7 -4 10 8 10 32 0 22 2 47 5 56 6 15 7 15 22 0 21 -21 25 -20 31 5 3 11
15 23 26 26 11 3 17 11 15 18 -3 7 4 15 15 18 13 3 22 14 23 29 0 12 2 29 2
37 1 17 26 28 26 12 0 -6 7 -8 15 -5 8 4 15 11 15 17 0 6 6 18 13 26 8 9 20
32 27 51 8 19 22 42 32 52 10 10 18 27 18 38 0 11 6 20 14 20 9 0 12 7 9 23
-3 15 -2 18 4 9 7 -9 19 2 45 43 19 30 38 52 41 48 4 -3 7 -1 7 5 0 6 10 13
23 15 12 2 24 5 27 5 3 1 10 -2 15 -6z m45 -2 c0 -5 -5 -10 -11 -10 -5 0 -7 5
-4 10 3 6 8 10 11 10 2 0 4 -4 4 -10z m124 -8 c3 -5 -1 -9 -9 -9 -8 0 -15 4
-15 9 0 4 4 8 9 8 6 0 12 -4 15 -8z m-24 -67 c0 -8 -2 -15 -4 -15 -2 0 -6 7
-10 15 -3 8 -1 15 4 15 6 0 10 -7 10 -15z m-838 -327 c-7 -7 -12 -8 -12 -2 0
14 12 26 19 19 2 -3 -1 -11 -7 -17z m348 18 c0 -3 -4 -8 -10 -11 -5 -3 -10 -1
-10 4 0 6 5 11 10 11 6 0 10 -2 10 -4z m-153 -12 c-3 -3 -12 -4 -19 -1 -8 3
-5 6 6 6 11 1 17 -2 13 -5z m-10 -51 c-4 -3 0 -11 9 -17 13 -10 10 -11 -13
-10 -15 1 -30 3 -32 3 -3 1 4 8 15 16 20 15 32 20 21 8z m11 -114 c-2 -6 -7
-10 -11 -10 -4 1 -14 1 -23 1 -8 0 -12 5 -9 10 8 13 48 13 43 -1z m809 -101
c-3 -8 -6 -5 -6 6 -1 11 2 17 5 13 3 -3 4 -12 1 -19z m-89 -356 c2 -7 -3 -12
-12 -12 -9 0 -16 7 -16 16 0 17 22 14 28 -4z m-18 -82 c0 -5 -7 -10 -15 -10
-8 0 -15 5 -15 10 0 6 7 10 15 10 8 0 15 -4 15 -10z m-713 -530 c-1 -11 -5
-20 -9 -20 -3 0 -6 9 -5 20 1 11 5 20 9 20 3 0 6 -9 5 -20z m3314 -320 c5 0 9
-4 9 -10 0 -5 -7 -7 -15 -4 -13 5 -14 2 -5 -20 5 -14 7 -26 3 -26 -3 0 -3 -3
0 -7 4 -3 14 2 21 13 8 10 18 16 22 11 4 -4 2 -13 -4 -19 -16 -16 -15 -34 4
-53 14 -14 15 -21 5 -43 -11 -23 -10 -29 9 -44 12 -10 18 -22 14 -29 -5 -8 -3
-9 6 -4 10 6 12 1 7 -23 -4 -19 -2 -34 5 -38 7 -4 8 -3 4 4 -4 7 -4 17 0 23 4
8 9 7 15 -2 6 -11 11 -11 21 -1 16 16 31 15 25 -2 -7 -17 8 -31 41 -39 23 -5
23 -5 7 13 -13 14 -13 19 -3 24 7 3 2 3 -10 0 -22 -5 -23 -3 -21 30 2 19 -2
41 -9 48 -15 15 -16 42 -1 32 7 -4 10 -1 7 7 -2 8 -18 20 -34 28 l-29 15 33
13 c29 12 34 18 31 39 0 4 5 10 11 14 8 5 1 17 -23 36 -20 15 -34 31 -31 35 6
11 54 -14 54 -28 0 -7 2 -13 4 -13 2 0 11 -3 20 -6 11 -4 16 -1 16 11 0 14 7
16 39 13 28 -2 37 0 34 9 -3 9 4 13 21 13 14 0 26 -5 26 -11 0 -8 4 -8 14 0 8
7 16 8 18 3 1 -4 27 -27 56 -50 30 -23 50 -42 45 -42 -4 0 -2 -4 5 -8 7 -5 10
-16 6 -25 -3 -9 -10 -14 -15 -11 -13 8 -10 -8 5 -29 8 -10 11 -27 8 -39 -3
-13 -1 -19 5 -15 7 4 9 -7 6 -32 -3 -26 0 -43 11 -54 9 -8 16 -22 16 -29 0
-10 -2 -10 -9 1 -5 7 -14 10 -20 7 -16 -10 -14 -43 4 -50 8 -3 12 -12 9 -21
-3 -8 -10 -12 -16 -9 -13 8 -6 -39 7 -48 6 -4 2 -8 -9 -8 -12 0 -16 5 -12 16
3 8 2 13 -3 10 -4 -3 -8 -19 -9 -37 0 -17 -9 -37 -19 -45 -17 -13 -17 -13 5
-14 24 0 27 -7 12 -30 -6 -9 -5 -17 1 -21 15 -9 -1 -61 -16 -55 -18 6 -13 -19
8 -42 19 -21 14 -33 -11 -25 -11 3 -13 2 -6 -4 25 -19 19 -94 -7 -78 -13 9
-11 -9 3 -23 9 -9 9 -12 0 -12 -7 0 -12 -4 -12 -10 0 -5 7 -10 15 -10 8 0 15
-4 15 -10 0 -5 -5 -10 -10 -10 -6 0 -5 -6 2 -14 7 -8 17 -11 22 -8 5 3 7 -7 4
-21 -3 -16 0 -28 8 -31 8 -3 14 -12 14 -21 0 -8 9 -32 20 -52 10 -20 22 -56
26 -80 3 -24 10 -43 14 -43 4 0 10 -15 14 -32 3 -18 9 -46 12 -62 5 -22 4 -27
-6 -21 -6 4 -4 -4 5 -19 10 -14 14 -26 10 -26 -4 0 -2 -7 5 -15 10 -12 10 -15
0 -15 -9 0 -10 -3 -1 -14 8 -9 8 -22 2 -38 -6 -16 -5 -31 4 -48 7 -13 11 -37
8 -53 -2 -16 -1 -27 4 -24 5 3 9 -3 9 -13 0 -10 -4 -17 -7 -14 -4 2 -10 0 -13
-5 -3 -5 1 -11 9 -15 8 -3 15 -15 15 -26 0 -11 4 -20 8 -20 5 0 7 -33 6 -74
-1 -58 1 -76 13 -80 9 -4 12 -13 8 -26 -3 -10 -1 -28 5 -40 9 -16 8 -22 -5
-26 -14 -6 -14 -8 0 -24 8 -9 12 -19 9 -23 -3 -3 -3 -11 2 -18 10 -17 12 -79
2 -106 -4 -12 -3 -25 2 -28 15 -9 12 -55 -2 -55 -10 0 -10 -2 0 -9 15 -9 13
-72 -3 -83 -6 -5 -5 -11 4 -17 22 -14 21 -53 -1 -59 -15 -4 -16 -7 -6 -20 11
-13 10 -15 -9 -10 -13 4 -23 3 -23 -1 0 -3 10 -11 23 -16 21 -10 34 -55 16
-55 -5 0 -9 -6 -9 -14 0 -8 -6 -17 -12 -19 -10 -4 -10 -8 1 -15 15 -11 -2 -27
-19 -17 -5 3 -10 4 -10 1 0 -3 17 -13 37 -22 20 -10 31 -20 25 -22 -6 -2 -8
-10 -5 -18 3 -9 -1 -14 -12 -14 -9 0 -14 4 -11 9 4 5 -3 7 -13 4 -23 -6 -34
-50 -15 -57 16 -6 19 -36 3 -36 -6 0 -9 -14 -7 -32 2 -28 7 -33 28 -33 20 0
26 -6 28 -27 3 -23 -1 -28 -18 -28 -12 0 -18 4 -15 10 4 6 10 8 15 5 4 -3 7 3
6 12 -3 17 -6 19 -25 11 -17 -6 -22 -46 -8 -60 12 -11 12 -15 -2 -26 -14 -12
-13 -13 7 -9 12 3 22 1 22 -4 0 -5 -10 -9 -21 -9 -19 0 -21 -4 -16 -35 5 -27
2 -35 -10 -35 -13 0 -13 -2 -2 -17 11 -13 11 -17 2 -20 -7 -3 -13 -11 -13 -19
0 -8 6 -14 13 -14 8 0 8 -3 2 -8 -6 -4 -11 -45 -12 -92 -1 -122 -6 -170 -16
-170 -5 0 -7 -18 -4 -40 3 -24 1 -40 -5 -40 -6 0 -8 -7 -5 -15 4 -8 3 -16 -1
-19 -4 -3 -9 -21 -10 -40 -2 -30 2 -38 22 -47 22 -10 23 -12 7 -29 -9 -9 -19
-15 -23 -13 -5 2 -8 -1 -8 -6 0 -6 8 -11 17 -11 13 0 14 -3 5 -12 -16 -16 -15
-29 2 -22 16 6 29 -33 15 -42 -6 -3 -5 -11 2 -20 9 -11 8 -15 -5 -20 -13 -5
-14 -9 -5 -20 9 -11 6 -14 -15 -14 -32 0 -46 -28 -23 -45 22 -16 22 -35 1 -35
-12 0 -14 -3 -6 -13 7 -8 6 -18 -4 -31 -12 -18 -14 -18 -14 -3 0 15 -2 16 -14
5 -13 -11 -12 -16 4 -32 17 -18 18 -20 2 -45 -10 -14 -12 -22 -4 -18 11 8 12
2 3 -42 -1 -2 -7 1 -14 7 -14 12 -57 5 -57 -9 0 -13 14 -11 29 4 11 10 11 8 2
-11 -7 -12 -16 -20 -20 -17 -16 9 -19 -35 -4 -50 9 -10 10 -15 3 -15 -7 0 -10
-6 -7 -14 3 -8 -1 -20 -9 -26 -8 -7 -14 -17 -14 -22 0 -11 -21 -34 -33 -35 -5
-1 -12 -5 -15 -9 -4 -4 -1 -4 7 1 10 6 12 2 6 -14 -5 -17 -2 -24 13 -28 23 -6
36 -29 21 -38 -5 -4 -8 -1 -7 7 2 8 -8 14 -24 16 -20 2 -28 -1 -28 -12 0 -10
-6 -13 -15 -10 -11 5 -13 2 -9 -10 3 -9 0 -26 -8 -39 -8 -12 -14 -29 -13 -39
2 -9 -4 -18 -14 -21 -9 -2 -29 -30 -45 -61 -24 -48 -27 -59 -15 -67 11 -8 10
-9 -4 -7 -11 2 -24 -8 -35 -26 -9 -16 -26 -39 -37 -51 -11 -13 -28 -34 -38
-49 -10 -14 -23 -26 -30 -26 -7 0 -18 -13 -25 -30 -8 -16 -20 -30 -28 -30 -8
0 -17 -7 -20 -15 -4 -8 -12 -15 -20 -15 -8 0 -14 -5 -14 -11 0 -7 -10 -9 -26
-5 -23 6 -26 4 -21 -14 5 -20 -23 -46 -37 -33 -3 3 -6 -3 -6 -15 0 -21 -19
-30 -34 -15 -3 4 -13 8 -22 9 -12 2 -13 0 -3 -12 6 -8 10 -15 8 -17 -39 -22
-51 -27 -59 -22 -5 3 -14 -3 -19 -13 -6 -11 -20 -22 -31 -25 -11 -3 -18 -1
-15 3 3 5 -4 8 -15 7 -14 -1 -18 -6 -14 -19 4 -13 0 -18 -15 -18 -12 0 -21 -4
-21 -9 0 -12 -85 -32 -103 -25 -8 3 -18 1 -22 -5 -3 -6 -12 -11 -18 -11 -7 0
-4 5 6 11 21 13 22 25 1 33 -13 5 -14 3 -6 -7 8 -10 6 -16 -11 -27 -12 -8 -29
-13 -39 -12 -9 2 -20 -3 -24 -9 -5 -9 -2 -10 11 -5 15 5 16 4 5 -9 -16 -19
-65 -16 -65 4 0 25 -24 23 -30 -2 -5 -19 -13 -24 -37 -25 -17 0 -35 -7 -39
-14 -7 -11 -9 -10 -9 1 0 11 -3 11 -15 1 -15 -12 -16 -11 -19 13 0 6 -8 12
-16 12 -8 0 -20 11 -27 25 -8 19 -12 20 -12 8 -1 -10 -5 -18 -9 -18 -5 0 -16
-6 -25 -12 -15 -11 -12 -13 20 -16 21 -1 42 -7 48 -13 7 -8 -10 -9 -60 -5 -52
5 -77 3 -98 -8 -26 -14 -44 -15 -79 -1 -11 4 -18 0 -23 -14 -3 -12 -11 -21
-16 -21 -6 0 -7 5 -4 10 3 6 2 10 -2 10 -5 0 -14 9 -21 21 -12 19 -11 20 7 14
19 -6 20 -3 14 26 -4 23 -3 30 5 25 7 -4 12 -4 12 1 0 4 -11 13 -25 20 -14 6
-25 7 -25 2 0 -5 6 -9 13 -9 8 0 8 -3 1 -8 -6 -4 -14 -15 -17 -26 -4 -10 -13
-16 -21 -13 -7 3 -19 0 -26 -6 -9 -8 -11 -9 -7 -1 8 14 -10 30 -38 36 -11 2
-20 8 -20 15 0 6 -3 14 -7 17 -5 3 -6 3 -3 0 2 -4 -5 -15 -17 -25 -21 -19 -94
-24 -104 -7 -9 15 -24 8 -24 -11 0 -20 -25 -35 -42 -25 -5 3 -23 7 -39 8 -17
1 -34 8 -39 15 -12 20 -32 2 -26 -24 4 -15 -1 -28 -14 -40 -20 -18 -21 -18
-38 -1 -16 16 -16 17 3 10 18 -7 19 -6 6 10 -8 10 -23 15 -33 13 -10 -3 -21
-1 -24 4 -3 5 -20 9 -37 8 -58 -4 -97 1 -94 12 1 6 -4 14 -10 16 -9 3 -13 -6
-13 -28 0 -26 -3 -30 -12 -21 -7 7 -22 12 -35 12 -13 0 -23 5 -23 10 0 6 5 10
10 10 6 0 10 9 10 19 0 11 6 22 13 24 9 4 9 6 -1 6 -7 1 -17 -9 -23 -21 -9
-21 -9 -21 -6 5 3 18 0 26 -7 24 -6 -3 -10 -10 -9 -16 5 -20 -22 -7 -27 14 -3
11 -14 22 -25 24 -22 4 -45 25 -45 41 0 6 -5 10 -12 8 -6 -2 -21 5 -32 16 -19
19 -19 23 -6 34 13 12 13 13 -3 8 -12 -4 -17 0 -17 12 0 22 -22 72 -32 72 -5
0 -8 -4 -8 -10 0 -5 -5 -10 -10 -10 -6 0 -1 13 11 29 l21 28 -27 58 c-25 56
-27 85 -5 85 6 0 -3 17 -19 38 -27 33 -30 44 -29 105 1 54 -3 72 -17 85 -17
15 -18 15 -6 0 7 -9 8 -19 3 -22 -15 -9 -20 14 -16 72 3 41 1 52 -8 46 -9 -6
-9 -3 1 9 12 15 11 17 -11 17 -19 0 -24 6 -26 31 -1 17 1 28 6 25 11 -6 9 25
-3 43 -5 10 -4 12 3 7 7 -4 12 -3 12 3 0 5 -10 11 -22 13 -14 2 -27 15 -35 37
-14 32 -13 33 7 28 18 -5 21 -2 18 20 -2 14 -12 31 -23 37 -28 15 -33 25 -33
61 0 33 -28 105 -46 117 -6 4 -3 16 7 31 15 23 15 24 -1 23 -18 -1 -45 61 -34
79 13 22 11 43 -6 47 -19 5 -48 87 -35 97 11 8 11 61 0 61 -5 0 -6 16 -4 36 3
24 1 37 -8 40 -20 8 -27 35 -13 52 11 13 10 15 -3 10 -16 -6 -39 26 -39 55 -1
13 -34 57 -44 57 -10 0 -7 -28 4 -32 5 -1 7 -14 3 -27 -5 -20 -10 -23 -42 -18
-20 3 -30 3 -23 0 6 -2 12 -12 12 -20 0 -10 6 -13 17 -9 15 6 32 -8 33 -25 0
-4 -17 -3 -37 2 -57 13 -63 11 -63 -16 0 -14 -5 -25 -11 -25 -6 0 -9 6 -6 13
3 8 -1 14 -8 14 -17 0 -12 -30 6 -35 40 -11 42 -13 31 -24 -8 -8 -15 -8 -26 1
-12 10 -17 8 -27 -11 -7 -13 -20 -29 -31 -36 -10 -7 -18 -20 -18 -28 0 -21
-37 -54 -55 -48 -11 5 -15 0 -15 -17 0 -27 -50 -64 -97 -74 -46 -10 -47 -10
-60 -18 -20 -13 -117 -4 -129 12 -6 7 -21 15 -35 16 -38 4 -39 4 -39 16 0 8 5
7 15 -1 13 -11 14 -10 9 6 -7 19 -7 19 14 0 20 -17 22 -17 22 -2 0 9 7 19 15
22 8 4 15 13 15 21 0 9 -5 11 -12 6 -7 -4 -20 -8 -28 -8 -8 0 -20 -4 -27 -8
-6 -4 -14 -3 -18 3 -7 11 -44 -4 -56 -23 -11 -16 -49 2 -42 20 5 11 3 14 -6 9
-7 -5 -11 -17 -8 -27 4 -14 0 -19 -13 -19 -22 0 -35 16 -20 25 16 10 12 38 -4
32 -8 -3 -17 1 -20 8 -3 8 -12 12 -21 9 -8 -3 -15 -2 -15 4 0 12 -68 13 -76 1
-3 -5 0 -9 5 -9 12 0 15 -29 4 -31 -5 -1 -31 -2 -60 -3 -49 -1 -90 -16 -45
-16 15 0 22 -6 22 -20 0 -23 -18 -27 -26 -5 -4 8 -13 15 -21 15 -8 0 -11 5 -7
12 4 7 3 8 -4 4 -18 -11 -37 4 -21 16 10 7 6 8 -13 4 -15 -3 -30 -2 -33 4 -3
6 1 7 9 4 9 -3 16 -1 16 5 0 6 -6 11 -13 11 -16 0 -57 70 -57 97 0 10 -6 25
-12 32 -9 10 -10 15 -2 18 8 3 8 15 -2 43 -14 41 -16 120 -3 120 9 0 4 53 -10
97 -5 17 -7 34 -4 36 10 11 14 68 5 84 -6 10 -6 26 -1 40 5 14 4 25 -2 29 -6
3 -2 12 9 22 22 20 34 59 21 68 -15 9 -10 27 5 21 11 -4 13 -1 9 10 -4 10 -2
14 5 9 6 -3 13 -2 16 3 3 5 -1 12 -9 15 -13 4 -14 10 -5 26 6 11 8 26 4 32 -5
7 -3 8 6 3 9 -6 10 -2 5 15 -5 15 -4 20 4 16 6 -4 11 -2 11 3 0 6 -5 11 -10
11 -6 0 -9 14 -8 30 1 17 8 30 14 30 7 0 10 9 7 23 -3 16 -2 18 5 8 6 -9 8 2
6 33 -3 35 0 46 11 46 8 0 15 4 15 9 0 5 3 17 7 27 4 11 3 15 -4 11 -8 -5 -7
1 0 18 7 14 15 25 19 25 3 0 10 15 13 33 4 17 10 36 13 42 3 5 7 23 9 40 3 32
22 76 38 87 6 5 6 8 -1 8 -15 0 -12 52 3 65 11 9 27 79 39 165 3 19 12 50 20
68 9 18 13 40 10 48 -3 8 -2 12 4 9 5 -3 9 5 8 17 -2 40 2 48 18 48 11 0 14 4
7 13 -5 6 -8 29 -7 49 0 21 -3 35 -7 32 -18 -11 -8 16 13 36 15 14 22 32 22
57 0 20 2 31 4 24 7 -22 22 0 22 34 0 18 6 35 13 38 9 3 12 16 10 34 -3 19 1
36 12 46 11 11 17 35 17 72 1 30 4 55 8 55 3 0 11 12 18 28 23 49 37 72 43 72
4 0 5 9 2 20 -3 11 0 20 6 20 6 0 11 11 11 24 0 14 7 32 16 40 8 9 14 21 12
28 -5 14 29 51 41 44 4 -3 8 1 8 9 0 8 -4 15 -8 15 -5 0 -6 7 -3 15 4 8 11 15
18 15 6 0 19 12 28 28 9 15 25 36 36 48 11 11 23 30 26 42 5 15 15 22 32 22
13 0 24 5 24 11 0 5 5 7 10 4 6 -3 10 1 10 10 0 9 9 19 20 22 23 6 26 19 8 26
-8 3 -6 6 4 6 11 1 15 6 12 15 -9 24 15 28 42 7 34 -27 54 -27 47 -1 -4 14 0
20 11 20 25 0 21 50 -4 57 -11 3 -20 12 -20 20 0 11 4 13 13 6 6 -6 24 -13 40
-17 15 -3 27 -11 27 -16 0 -6 7 -10 15 -10 10 0 14 9 11 30 -3 28 -1 30 33 31
20 0 30 3 23 6 -6 2 -10 9 -6 14 3 5 -3 9 -13 10 -10 0 -13 3 -6 5 7 3 9 12 6
20 -6 17 1 18 28 4 12 -7 19 -7 19 -1 0 6 8 7 18 4 15 -6 16 -5 2 12 -12 14
-12 19 -2 23 10 3 10 7 1 18 -10 12 -9 13 6 8 15 -6 17 -3 13 14 -4 12 -2 22
2 22 5 0 10 -10 12 -22 5 -33 36 -36 34 -4 0 14 -7 26 -13 26 -18 0 -16 18 4
38 15 16 16 16 11 0 -5 -11 0 -18 12 -21 20 -5 40 10 40 29 0 7 8 10 20 7 29
-8 52 14 40 37 -14 27 -13 30 14 30 13 0 26 5 28 11 7 20 37 -19 33 -41 -2
-13 2 -20 11 -20 8 0 14 -6 14 -14 0 -9 9 -14 20 -13 12 1 19 6 15 14 -3 10 0
11 15 3 27 -14 38 -13 49 9 8 14 5 23 -9 39 -22 24 -27 40 -7 24 7 -6 26 -16
42 -21 l30 -11 -22 19 c-25 21 -21 31 14 31 13 0 23 6 23 14 0 15 27 29 40 21
7 -4 80 32 80 39 0 1 -10 10 -21 20 -21 18 -22 18 -15 -8 7 -27 -6 -34 -32
-17 -17 10 -14 22 9 38 18 14 45 8 68 -15 7 -7 20 -11 27 -8 11 4 13 -1 8 -22
-5 -24 -3 -23 17 11 18 29 29 37 52 37 16 0 26 4 22 10 -4 6 1 7 11 3 11 -4
13 -8 6 -11 -7 -2 -10 -8 -6 -13 9 -15 22 -10 29 12 6 19 8 19 25 4 13 -12 26
-14 42 -9 40 14 50 13 44 -2 -3 -8 1 -14 8 -14 8 0 16 6 19 13 3 8 10 7 26 -7
16 -14 21 -16 21 -5 0 8 8 4 20 -11 23 -30 25 -41 6 -34 -8 3 -17 1 -21 -5 -4
-8 5 -9 28 -6 22 4 38 1 43 -6 5 -9 2 -10 -10 -6 -14 6 -15 4 -5 -16 7 -12 12
-23 11 -24 -7 -10 1 -23 13 -23 8 0 15 -7 15 -16 0 -11 -6 -15 -20 -11 -12 3
-20 0 -20 -6 1 -20 28 -49 39 -43 11 7 32 -55 22 -64 -13 -11 -4 -50 15 -72
15 -18 19 -34 16 -71 -3 -33 1 -55 13 -73 9 -15 12 -23 6 -20 -14 9 -14 0 0
-25 7 -15 7 -24 -1 -34 -8 -9 -7 -17 4 -28 8 -8 13 -17 10 -20 -3 -3 -7 -17
-8 -31 -2 -18 1 -26 13 -26 14 0 14 -2 1 -9 -8 -6 -18 -7 -22 -5 -4 3 -8 0 -8
-5 0 -6 6 -11 13 -11 16 0 40 -38 31 -51 -3 -5 0 -17 8 -26 9 -12 9 -15 1 -9
-7 4 -13 2 -13 -3 0 -6 4 -11 10 -11 5 0 6 -7 3 -17 -4 -11 -3 -14 5 -9 9 5
11 -2 8 -26 -5 -42 -16 -68 -27 -68 -5 0 -9 -9 -9 -21 0 -18 4 -20 25 -15 14
4 25 2 25 -4 0 -5 -7 -10 -16 -10 -13 0 -14 -3 -4 -14 6 -8 10 -27 8 -42 -2
-17 2 -29 11 -32 8 -3 11 0 7 7 -4 6 -2 11 5 11 7 0 10 -13 7 -36 -3 -29 -1
-38 14 -42 10 -2 18 -12 18 -21 0 -14 -2 -14 -10 -1 -5 8 -13 11 -17 6 -4 -4
-1 -13 7 -19 9 -7 15 -25 14 -42 0 -16 8 -50 19 -75 22 -52 34 -115 18 -90 -6
8 -11 25 -11 38 0 12 -6 22 -14 22 -11 0 -12 -6 -5 -27 5 -16 11 -45 14 -66 5
-28 9 -36 18 -29 16 13 20 -38 7 -74 -6 -16 -6 -23 0 -19 5 3 5 -8 -2 -26 -8
-22 -8 -33 0 -38 10 -6 12 -27 14 -124 1 -15 3 -25 6 -23 2 3 11 -1 18 -9 10
-9 13 -30 11 -60 -3 -39 -1 -45 15 -45 11 0 16 -5 13 -10 -4 -6 -2 -17 4 -24
10 -12 9 -37 -1 -84 -1 -4 3 -18 9 -32 22 -53 35 -96 35 -112 -1 -10 3 -20 9
-23 15 -10 10 -55 -6 -61 -9 -4 -15 -19 -15 -35 0 -29 14 -39 24 -16 2 6 4 3
4 -8 -2 -47 3 -76 12 -70 6 3 10 -3 10 -14 0 -12 -5 -21 -11 -21 -8 0 -7 -5 2
-16 7 -9 13 -30 14 -49 0 -18 6 -40 14 -49 9 -10 10 -16 2 -16 -15 0 -14 -47
2 -53 8 -2 12 -31 12 -95 0 -50 2 -89 6 -86 4 2 3 -12 -1 -31 -4 -19 -4 -33 0
-30 4 3 10 -4 13 -15 4 -15 0 -20 -14 -20 -16 0 -17 -3 -7 -19 7 -11 15 -18
19 -15 4 2 6 -26 4 -62 -3 -48 0 -73 11 -88 7 -11 14 -34 13 -51 0 -26 -2 -27
-9 -10 -8 18 -9 18 -9 2 -1 -10 6 -26 15 -34 8 -9 13 -25 11 -35 -4 -14 -1
-18 9 -14 8 3 14 2 14 -2 0 -4 3 -18 7 -31 5 -20 3 -23 -10 -18 -23 9 -21 -5
3 -26 11 -9 20 -24 20 -32 0 -8 4 -15 9 -15 10 0 9 -46 -1 -56 -3 -3 -2 -22 3
-42 5 -22 4 -41 -1 -46 -12 -12 -13 -26 -2 -25 4 1 14 1 22 0 13 -1 13 -3 1
-10 -12 -8 -10 -12 12 -22 28 -13 36 -29 15 -30 -7 0 -2 -5 11 -10 13 -5 26
-7 29 -4 3 3 0 5 -6 5 -7 0 -12 7 -12 15 0 8 8 14 18 13 9 -1 34 2 54 6 34 7
36 10 27 28 -9 16 -8 19 3 16 15 -6 58 36 58 58 0 7 -8 14 -17 15 -12 1 -9 4
7 8 20 6 25 13 25 39 0 17 7 37 16 44 22 18 30 43 16 57 -8 8 -7 11 4 11 12 0
12 2 -1 10 -13 8 -13 11 -1 19 8 5 11 16 8 24 -3 8 0 20 6 26 8 8 7 11 -6 11
-11 0 -14 5 -10 16 4 11 8 12 13 4 4 -6 6 10 5 35 0 25 2 48 5 50 4 2 7 23 8
46 1 23 4 45 7 47 3 3 0 11 -6 18 -7 9 -7 30 0 68 12 63 6 90 -17 81 -12 -5
-12 -1 3 15 10 11 13 20 7 20 -7 0 -12 12 -12 26 0 17 4 23 13 18 7 -5 6 0 -3
11 -8 10 -16 40 -16 69 -5 173 -13 238 -31 251 -17 13 -17 14 7 24 18 7 20 10
8 10 -10 1 -18 6 -18 12 0 5 5 7 12 3 8 -5 9 -2 4 12 -17 41 -18 56 -5 66 11
7 11 11 2 15 -18 7 -16 16 9 43 15 16 17 22 6 18 -24 -10 -40 12 -22 30 9 8
11 18 6 21 -5 3 -9 34 -9 68 1 34 4 60 8 58 3 -3 3 14 -1 37 -5 23 -4 52 1 65
5 14 4 25 -2 29 -6 4 -5 14 5 29 11 17 12 25 3 34 -8 8 -8 11 0 11 6 0 9 9 6
20 -3 11 -9 20 -14 20 -5 0 0 15 10 34 19 33 19 34 0 55 -23 24 -24 31 -4 31
8 0 15 -8 16 -17 0 -14 3 -12 10 5 5 15 5 30 -1 41 -5 10 -11 34 -13 52 -2 19
-9 44 -15 56 -9 16 -9 22 0 25 17 6 17 88 1 116 -8 12 -11 28 -7 34 11 17 13
111 3 123 -16 21 -17 84 -1 90 11 4 12 8 2 20 -7 8 -10 26 -8 40 3 14 1 28 -4
31 -5 3 -7 12 -4 19 2 7 -2 24 -9 39 -8 15 -10 28 -4 31 12 8 5 48 -9 53 -7 2
-10 7 -7 11 2 5 -2 16 -9 26 -11 15 -10 23 2 47 13 26 13 32 -1 45 -11 11 -13
23 -7 44 5 18 5 27 -1 24 -15 -10 -10 12 6 25 8 7 15 18 15 25 0 7 -7 15 -15
19 -33 12 -7 63 36 71 12 2 27 9 34 15 7 6 19 9 26 7 8 -2 11 -2 7 0 -5 3 -5
17 -2 31 4 18 2 23 -3 14 -7 -9 -17 -10 -33 -4 l-24 9 22 12 c13 7 37 11 55 9
23 -2 31 1 29 11 -3 12 0 12 12 2 9 -7 14 -17 11 -21 -2 -4 7 -5 20 -2 14 2
25 11 25 21 1 14 3 14 15 -2 7 -11 11 -25 8 -33 -3 -8 -1 -14 5 -14 6 0 12 5
14 11 7 22 37 -19 31 -43 -3 -13 -2 -20 2 -16 4 4 19 -5 31 -20 13 -15 24 -25
25 -22 0 3 2 13 4 22 2 10 0 17 -3 17 -20 -3 -32 2 -27 11 3 5 12 7 20 3 19
-7 19 14 1 32 -8 9 -17 10 -23 4 -6 -6 -8 1 -5 21 3 18 0 30 -7 30 -6 0 -11 5
-11 10 0 6 6 9 12 8 18 -4 40 -27 34 -36 -2 -4 -1 -14 5 -22 7 -12 9 -12 9 -1
0 9 8 11 24 7 18 -4 26 -1 29 11 3 13 5 12 6 -5 1 -14 6 -22 14 -19 6 2 11 10
9 16 -1 6 2 11 8 11 10 0 14 -14 11 -39 -2 -11 0 -11 12 0 13 12 11 18 -16 42
-24 21 -28 30 -18 36 9 6 11 16 6 32 -7 21 -6 22 9 10 21 -17 20 -30 -1 -48
-17 -13 -16 -14 3 -8 16 4 23 0 27 -15 7 -28 25 -25 22 5 -2 17 3 26 16 30 11
4 17 11 14 16 -4 5 0 9 7 10 9 0 9 2 1 5 -8 4 -5 16 9 40 11 19 18 37 15 41
-4 3 -12 -6 -18 -21 -16 -34 -33 -34 -25 0 4 16 3 23 -3 19 -7 -3 -8 0 -5 9 7
18 24 22 24 6 0 -5 7 -7 16 -3 11 4 12 8 4 13 -9 6 -9 9 -1 15 8 5 5 13 -9 25
-22 19 -22 19 15 13 37 -6 38 -5 31 21 -3 14 -3 26 1 25 5 -1 19 -1 32 0 19 1
21 4 12 15 -16 19 3 30 21 14 20 -20 48 -21 48 -2 0 10 5 14 15 10 9 -3 15 0
15 10 0 8 5 12 10 9 7 -4 8 3 4 22 -7 25 -6 27 9 15 9 -8 20 -11 26 -8 14 9
-11 67 -26 62 -7 -3 -13 -1 -13 3 0 5 -3 17 -6 26 -5 12 -2 16 12 13 15 -2 19
4 20 27 3 43 7 45 11 8 2 -18 8 -33 14 -33z m2229 40 c0 -5 6 -10 14 -10 15 0
56 -46 56 -63 0 -5 -7 -4 -15 3 -17 14 -31 8 -21 -8 6 -11 32 -10 76 1 14 4
19 4 12 1 -6 -3 -10 -10 -6 -15 3 -5 -2 -9 -10 -9 -9 0 -16 -6 -16 -14 0 -8
-12 -19 -27 -24 l-28 -10 27 -7 c15 -4 48 -2 73 3 56 12 91 6 75 -13 -8 -9 -7
-13 2 -12 34 1 48 -4 48 -18 0 -8 -5 -15 -11 -15 -5 0 -8 -4 -5 -8 3 -5 -4
-16 -16 -26 -15 -13 -17 -20 -9 -26 7 -4 12 -11 11 -16 -1 -5 3 -10 10 -12 6
-2 9 2 8 10 -2 7 3 12 10 11 6 -2 12 4 12 12 0 14 34 28 61 25 35 -5 59 1 59
15 0 18 27 20 32 3 3 -7 20 -13 39 -15 87 -7 105 -16 119 -60 10 -29 9 -37 -5
-53 -9 -10 -14 -23 -11 -28 7 -12 -42 -58 -72 -67 -14 -4 -21 -12 -18 -21 3
-7 1 -16 -4 -19 -20 -12 -9 -25 15 -19 22 5 25 3 25 -21 0 -16 -4 -24 -11 -19
-7 4 -9 0 -5 -13 8 -26 -19 -79 -66 -126 -39 -40 -47 -62 -25 -70 9 -3 9 -9
-1 -26 -7 -12 -9 -27 -5 -34 10 -17 3 -79 -10 -96 -7 -8 -11 -16 -9 -18 1 -1
2 -9 2 -15 0 -10 -2 -10 -9 0 -6 10 -10 10 -21 -3 -10 -12 -10 -18 1 -32 10
-11 10 -14 2 -9 -8 4 -13 1 -13 -9 0 -9 -4 -14 -8 -11 -10 6 -66 -45 -70 -64
-2 -8 -10 -20 -18 -26 -7 -6 -14 -16 -14 -21 0 -15 -69 -91 -88 -97 -16 -5
-54 -56 -52 -71 1 -20 -1 -25 -10 -20 -16 10 -52 -15 -46 -31 3 -8 2 -13 -2
-10 -11 7 -73 -50 -64 -59 4 -4 0 -6 -8 -5 -29 4 -39 0 -34 -14 6 -16 -34 -48
-49 -39 -6 3 -7 1 -3 -5 10 -16 -13 -25 -29 -12 -12 10 -15 9 -15 -3 0 -8 -5
-17 -12 -19 -6 -2 -12 -15 -13 -29 -1 -18 -7 -23 -23 -21 -15 2 -22 -2 -22
-13 0 -9 -5 -13 -11 -10 -5 4 -19 -1 -30 -11 -18 -16 -20 -16 -38 0 -14 13
-21 14 -27 5 -4 -8 -3 -10 4 -5 7 4 12 3 12 -3 0 -5 -5 -13 -11 -16 -6 -4 -8
-14 -5 -22 4 -8 2 -11 -5 -7 -14 8 -59 -16 -59 -32 0 -6 -11 -19 -25 -28 -14
-9 -25 -23 -25 -31 0 -8 -10 -20 -22 -26 -13 -7 -34 -21 -48 -32 -19 -15 -20
-18 -6 -13 19 7 20 6 1 -14 -10 -11 -25 -18 -33 -15 -8 3 -12 0 -10 -7 5 -13
-33 -48 -51 -48 -6 0 -11 -4 -11 -8 0 -14 -121 -64 -137 -57 -9 3 -22 0 -30
-7 -11 -9 -16 -9 -23 1 -4 8 -16 11 -28 7 -11 -4 -23 -2 -27 4 -3 5 -11 10
-16 10 -6 0 -7 -4 -4 -10 3 -5 2 -10 -4 -10 -5 0 -11 5 -13 11 -2 6 -27 11
-56 12 -34 2 -56 8 -62 17 -5 8 -10 11 -10 5 -1 -5 -14 6 -30 25 -28 32 -30
33 -30 11 0 -19 -4 -22 -22 -18 -13 3 -40 9 -60 12 -21 4 -38 11 -38 16 0 5
-7 6 -16 2 -13 -5 -15 -2 -10 15 5 16 0 23 -25 36 -18 9 -37 16 -44 16 -6 0
-22 11 -35 25 -19 21 -21 27 -10 40 8 9 22 14 32 12 10 -3 18 -2 18 3 0 4 7
11 16 14 9 4 13 2 8 -5 -4 -8 0 -7 15 0 12 7 26 9 31 6 6 -3 10 4 10 17 0 23
-38 72 -62 80 -10 4 -10 8 -1 19 8 10 9 20 3 29 -6 8 -10 11 -10 6 0 -6 -7 -1
-15 10 -8 10 -15 15 -15 9 -1 -5 -9 6 -19 25 -14 26 -16 38 -8 51 9 14 7 22
-7 38 -11 12 -25 21 -31 21 -7 0 -15 9 -18 20 -3 12 -14 20 -25 20 -20 0 -32
18 -32 49 0 27 30 82 41 75 5 -3 8 0 7 8 -2 7 5 12 14 12 10 -1 16 2 13 6 -6
9 38 40 57 40 7 1 29 14 48 30 19 17 39 30 46 30 6 0 20 11 30 25 10 14 24 25
31 25 7 0 13 4 13 9 0 5 22 17 50 27 32 12 46 21 37 26 -8 5 -6 8 7 8 11 0 28
7 38 17 10 9 33 16 50 17 26 1 33 5 33 21 0 11 5 20 12 20 12 0 44 33 71 73
10 15 22 22 34 19 11 -3 18 0 18 9 0 13 12 18 32 15 5 0 7 2 6 7 -5 14 30 54
41 47 6 -3 11 1 11 10 0 9 5 13 10 10 16 -10 41 21 33 42 -7 17 -6 17 11 1 21
-22 27 -23 20 -3 -4 8 -1 15 4 15 6 0 14 9 17 20 3 11 13 20 21 20 8 0 14 5
14 10 0 6 20 30 44 53 36 34 43 45 35 60 -7 11 -7 17 1 17 12 0 33 47 32 73 0
9 2 17 6 17 4 0 13 9 20 21 11 17 11 20 0 13 -7 -4 -1 7 15 25 15 18 27 37 27
42 0 5 7 9 15 9 8 0 15 7 15 15 0 9 11 20 25 25 14 5 25 13 25 18 0 12 111
134 117 128 3 -2 13 3 23 12 35 32 49 42 59 42 5 0 16 6 23 13 32 31 128 51
128 27z m-3985 -70 c-3 -5 -11 -10 -16 -10 -6 0 -7 5 -4 10 3 6 11 10 16 10 6
0 7 -4 4 -10z m-195 -10 c0 -5 -4 -10 -10 -10 -5 0 -10 5 -10 10 0 6 5 10 10
10 6 0 10 -4 10 -10z m1880 0 c0 -5 -4 -10 -10 -10 -5 0 -10 5 -10 10 0 6 5
10 10 10 6 0 10 -4 10 -10z m210 0 c0 -5 -5 -10 -11 -10 -5 0 -7 5 -4 10 3 6
8 10 11 10 2 0 4 -4 4 -10z m-2286 -15 c-4 -8 -8 -15 -10 -15 -2 0 -4 7 -4 15
0 8 4 15 10 15 5 0 7 -7 4 -15z m2116 -15 c0 -5 -7 -7 -15 -4 -8 4 -15 1 -15
-7 0 -7 -3 -10 -6 -6 -9 9 5 27 22 27 8 0 14 -4 14 -10z m168 -3 c8 -10 6 -13
-9 -14 -19 -2 -25 8 -12 20 8 9 9 9 21 -6z m-2354 -38 c-3 -5 0 -9 5 -9 6 0
11 5 11 10 0 6 5 10 11 10 7 0 9 -10 7 -25 -3 -13 0 -26 6 -29 6 -2 0 -3 -14
-2 -14 1 -35 7 -46 13 -12 7 -24 9 -28 6 -3 -3 -6 -1 -6 6 0 6 8 11 18 9 13
-2 17 4 17 25 -1 26 0 27 12 11 7 -9 10 -21 7 -25z m80 26 c-7 -18 17 -20 35
-2 11 10 13 9 9 -2 -4 -14 -57 -35 -66 -27 -4 5 16 46 23 46 2 0 2 -7 -1 -15z
m2021 -13 c-3 -3 -11 0 -18 7 -9 10 -8 11 6 5 10 -3 15 -9 12 -12z m-3515 -28
c0 -9 5 -12 11 -8 8 5 10 -1 7 -18 -2 -13 1 -30 9 -36 8 -8 13 -9 13 -2 0 5 6
10 14 10 8 0 21 6 28 13 17 17 44 27 52 20 3 -4 -5 -21 -19 -39 -27 -35 -32
-54 -14 -54 5 0 8 -4 5 -9 -4 -5 0 -12 6 -14 8 -3 6 -6 -4 -6 -11 -1 -21 -15
-29 -43 -6 -24 -15 -53 -20 -66 -5 -13 -8 -33 -8 -45 1 -18 2 -18 6 -4 4 14 8
16 19 6 16 -13 19 -33 4 -24 -5 3 -10 1 -10 -4 0 -6 4 -11 9 -11 5 0 14 -14
20 -31 14 -40 14 -39 -6 -39 -14 0 -13 -3 5 -16 12 -8 22 -20 22 -26 0 -6 -9
-3 -20 7 -11 10 -20 13 -20 7 0 -7 5 -12 10 -12 6 0 10 -7 10 -15 0 -8 -4 -15
-9 -15 -10 0 -9 -26 2 -36 4 -4 1 -14 -7 -23 -7 -9 -16 -27 -19 -41 -3 -14 -8
-34 -10 -45 -3 -11 -9 -36 -13 -55 -5 -29 -4 -33 7 -22 21 19 25 15 26 -27 1
-38 -1 -40 -31 -43 -28 -3 -31 -6 -31 -38 0 -21 -6 -39 -15 -44 -12 -8 -10
-11 10 -16 19 -5 25 -13 26 -35 2 -37 -5 -57 -17 -49 -5 3 -6 -1 -3 -9 3 -8
-2 -17 -10 -20 -9 -4 -15 -3 -15 1 3 18 -2 32 -12 32 -5 0 -8 -4 -4 -9 3 -5
-2 -16 -10 -25 -10 -10 -12 -17 -4 -21 8 -5 8 -10 0 -18 -6 -6 -11 -17 -11
-25 0 -11 2 -11 13 0 7 7 16 22 20 32 10 26 17 15 22 -33 4 -38 -6 -54 -20
-31 -4 6 -11 8 -16 4 -6 -4 -6 -11 2 -20 9 -11 7 -14 -10 -14 -14 0 -22 -8
-26 -27 -4 -16 -10 -36 -16 -45 -13 -26 -11 -32 6 -18 9 7 18 10 22 6 3 -3 1
-6 -6 -6 -8 0 -11 -7 -7 -15 3 -8 2 -15 -3 -15 -12 0 -32 -74 -21 -78 6 -2 0
-12 -12 -21 l-21 -18 22 -6 c18 -4 20 -3 11 8 -9 11 -7 12 9 8 14 -3 21 0 21
8 1 9 4 8 11 -4 7 -13 7 -27 0 -49 -6 -17 -9 -34 -6 -38 3 -4 -1 -10 -9 -13
-10 -4 -12 3 -9 29 2 19 -1 34 -7 34 -5 0 -10 -5 -10 -11 0 -5 -6 -7 -12 -3
-10 6 -10 4 0 -7 15 -16 16 -56 1 -61 -5 -2 -11 -31 -12 -66 -1 -34 -4 -62 -7
-62 -7 0 -8 -5 -14 -65 -2 -23 -6 -50 -9 -60 -4 -11 -9 -37 -11 -57 -3 -20
-19 -81 -35 -135 -17 -53 -31 -103 -31 -109 0 -14 35 -12 36 2 2 25 18 45 31
39 12 -4 14 1 11 25 -3 19 -1 29 6 27 17 -6 7 -94 -12 -106 -8 -6 -25 -53 -27
-76 0 -5 -4 -16 -8 -22 -5 -7 -5 -17 -2 -23 3 -5 1 -10 -4 -10 -6 0 -11 -8
-11 -17 0 -10 -14 -60 -30 -112 -17 -51 -30 -100 -30 -107 0 -8 -4 -14 -10
-14 -5 0 -10 -16 -10 -35 0 -19 -5 -35 -11 -35 -5 0 -8 -4 -4 -9 3 -5 0 -13
-6 -16 -5 -4 -8 -13 -5 -21 8 -21 -7 -17 -24 5 -7 11 -17 18 -22 15 -11 -7
-10 10 2 24 5 7 3 6 -5 -1 -12 -10 -13 -19 -6 -38 5 -13 10 -20 10 -15 1 5 8
3 16 -4 14 -11 14 -15 0 -36 -8 -13 -12 -30 -9 -38 6 -15 -22 -66 -37 -66 -5
0 -9 7 -9 15 0 9 -6 12 -15 9 -9 -4 -15 0 -15 10 0 9 -5 16 -11 16 -17 0 14
-43 39 -55 16 -7 20 -15 16 -30 -4 -11 -11 -23 -16 -26 -5 -3 -13 -36 -19 -74
-5 -37 -12 -72 -16 -79 -8 -12 -9 -18 -11 -64 -1 -18 -10 -39 -21 -49 -11 -9
-17 -22 -14 -29 3 -8 0 -14 -7 -14 -6 0 -8 -5 -5 -10 3 -5 1 -10 -4 -10 -6 0
-11 -5 -11 -11 0 -5 5 -7 10 -4 6 3 10 4 10 1 0 -3 -14 -13 -31 -21 -24 -13
-28 -19 -19 -30 7 -9 8 -15 0 -20 -5 -3 -10 -17 -10 -30 0 -13 -5 -27 -10 -30
-8 -5 -7 -11 1 -21 9 -11 9 -18 -3 -32 -17 -19 -32 -53 -29 -65 1 -4 -5 -33
-13 -63 -9 -36 -11 -65 -6 -84 10 -33 32 -60 50 -60 7 0 9 -7 6 -16 -3 -8 -2
-12 4 -9 13 8 140 -97 135 -112 -2 -7 12 -14 36 -18 21 -4 39 -10 39 -15 0 -4
14 -13 30 -19 17 -5 38 -17 46 -26 9 -8 20 -12 26 -9 5 4 20 1 31 -5 40 -20
82 -34 94 -32 8 1 10 -4 7 -14 -6 -16 11 -21 20 -7 9 15 97 14 95 0 -6 -31 12
-54 42 -56 22 -2 30 1 27 10 -16 42 -18 58 -9 58 6 0 11 -7 11 -15 0 -8 6 -15
14 -15 9 0 12 -10 10 -32 -4 -30 -4 -31 16 -13 11 10 18 21 15 25 -2 4 2 16
10 26 9 11 14 14 15 6 0 -8 12 -12 33 -10 30 2 33 4 29 31 -3 21 -1 28 7 23 6
-4 11 -17 11 -29 0 -12 5 -29 10 -37 8 -13 10 -12 10 3 0 9 4 17 10 17 5 0 7
-7 4 -15 -4 -9 -1 -15 7 -15 8 0 14 10 14 24 0 13 -4 22 -9 18 -5 -3 -6 0 -2
7 5 7 14 10 21 7 7 -2 18 1 24 7 8 8 11 8 11 -1 0 -6 7 -9 15 -6 8 3 20 2 27
-2 21 -13 48 -12 48 3 0 16 14 17 41 3 11 -6 19 -21 19 -35 0 -14 5 -25 11
-25 5 0 7 5 4 10 -3 6 1 13 10 16 14 6 14 8 -2 19 -10 8 -15 16 -11 20 9 10
49 -5 43 -16 -8 -11 13 -49 26 -49 6 0 8 7 5 15 -4 11 0 15 11 13 9 -2 18 3
20 10 3 6 -4 12 -14 13 -10 0 -13 3 -6 5 6 3 24 -3 39 -13 23 -15 27 -15 22
-3 -3 9 0 24 7 33 12 16 13 16 26 0 11 -13 11 -17 2 -20 -7 -3 -13 -11 -13
-19 0 -8 6 -11 17 -7 10 4 14 2 10 -4 -4 -5 5 -15 18 -21 22 -10 25 -9 25 8 0
11 -6 20 -12 20 -10 0 -9 3 1 9 11 7 9 10 -8 16 -28 9 -27 29 3 43 22 10 25 8
32 -16 4 -15 8 -31 8 -36 1 -12 45 -15 52 -4 3 4 -1 8 -8 8 -10 0 -9 3 2 9 18
12 33 4 23 -12 -4 -7 1 -6 11 2 15 13 19 13 27 0 5 -8 9 -16 9 -19 0 -12 40
-5 40 7 0 16 0 16 41 -1 19 -8 40 -24 47 -36 12 -19 11 -25 -7 -41 -12 -11
-21 -26 -21 -34 0 -21 -18 -19 -23 3 -3 9 -5 0 -6 -21 -1 -23 3 -36 9 -32 6 3
10 -3 10 -15 0 -18 -3 -17 -33 12 -20 20 -29 36 -23 40 5 4 14 4 18 2 4 -3 8
1 8 8 0 15 -66 19 -88 5 -14 -9 -10 -46 8 -74 11 -16 11 -17 6 0 -3 11 0 17 9
17 8 0 15 -7 15 -15 0 -8 5 -15 11 -15 5 0 8 -4 4 -9 -10 -17 -8 -115 3 -119
5 -1 8 -12 5 -22 -3 -11 -9 -17 -14 -14 -5 3 -9 -2 -9 -11 0 -10 -5 -13 -12
-9 -7 4 -8 3 -4 -5 4 -6 2 -18 -4 -26 -9 -11 -9 -15 -1 -15 6 0 11 -6 11 -14
0 -20 38 -30 55 -16 8 7 15 11 16 9 7 -33 6 -38 -4 -32 -7 3 -4 -3 6 -14 9
-11 14 -22 11 -25 -3 -3 -1 -9 5 -13 7 -3 11 2 11 14 0 12 7 21 15 21 8 0 15
-5 15 -11 0 -8 4 -8 14 0 10 8 16 9 21 1 3 -5 1 -10 -4 -10 -6 0 -11 -9 -11
-20 0 -18 -3 -19 -22 -9 -18 10 -20 9 -15 -5 4 -9 2 -17 -3 -17 -6 -1 -15 -2
-21 -3 -7 0 -17 -9 -23 -18 -8 -14 -7 -22 7 -35 16 -16 17 -16 17 5 0 15 -4
21 -12 17 -7 -4 -4 1 6 9 11 9 25 16 30 15 6 0 5 -3 -1 -6 -15 -6 -17 -39 -3
-48 15 -10 12 -35 -5 -35 -8 0 -15 4 -15 8 0 8 -43 32 -56 32 -3 0 0 -9 6 -19
14 -27 13 -30 -15 -41 -30 -11 -32 -35 -5 -52 26 -16 26 -28 -1 -28 -12 0 -17
-4 -14 -11 4 -6 13 -8 21 -5 16 6 31 -13 17 -23 -5 -3 -13 -15 -16 -25 -6 -15
-5 -17 7 -7 16 13 49 4 43 -13 -4 -11 20 -35 36 -36 4 0 7 8 7 18 1 16 1 16
11 -1 5 -9 7 -22 4 -27 -7 -11 1 -12 32 -4 13 4 20 10 17 15 -3 5 -2 14 2 21
5 8 12 2 20 -17 7 -17 14 -24 15 -17 1 6 2 17 3 22 2 16 21 13 24 -4 2 -9 -1
-16 -7 -16 -6 0 -11 -4 -11 -9 0 -20 40 2 41 23 1 18 3 17 12 -6 6 -16 16 -28
21 -28 6 0 4 -5 -4 -10 -13 -9 -12 -13 7 -28 16 -12 22 -27 21 -52 -1 -19 -3
-29 -5 -22 -3 6 -14 12 -26 11 -12 0 -16 -3 -9 -6 14 -6 16 -33 2 -33 -5 0
-10 -9 -10 -19 0 -11 -4 -21 -10 -23 -5 -1 -18 -36 -29 -76 -10 -40 -22 -76
-25 -80 -4 -3 -24 -5 -45 -4 -22 2 -42 -2 -46 -7 -3 -6 -12 -8 -20 -5 -7 3
-23 1 -34 -5 -14 -8 -22 -8 -26 -1 -5 8 -11 7 -21 -1 -7 -6 -20 -9 -28 -6 -7
3 -19 0 -25 -6 -6 -6 -11 -7 -11 -2 0 6 -11 11 -24 11 -18 1 -26 -4 -28 -20
-3 -21 -22 -26 -24 -6 -3 20 -4 21 -16 13 -7 -4 -38 -9 -68 -10 -35 -1 -54 -6
-52 -13 2 -8 -3 -8 -17 0 -13 7 -22 7 -26 0 -4 -6 -10 -8 -15 -5 -5 3 -19 1
-31 -6 -13 -6 -19 -7 -15 -1 4 7 -12 10 -44 8 -27 -1 -50 1 -50 5 0 10 -60 5
-60 -6 0 -5 -7 -1 -15 9 -11 15 -15 16 -15 5 0 -20 -49 -23 -57 -4 -5 13 -7
13 -19 -2 -7 -10 -14 -14 -14 -9 0 5 -9 1 -20 -9 -19 -17 -20 -17 -20 0 0 12
-6 16 -19 12 -14 -3 -18 -1 -14 10 4 10 1 14 -6 12 -7 -3 -12 -8 -11 -13 4
-21 -24 -23 -35 -3 -7 12 -17 21 -24 19 -20 -4 -176 1 -223 7 -4 1 -14 13 -22
29 -8 15 -15 22 -16 15 0 -7 -6 -10 -14 -7 -8 3 -17 1 -21 -5 -10 -16 -25 -13
-25 5 0 11 -6 15 -20 11 -11 -3 -18 -1 -15 3 3 5 0 12 -6 16 -8 5 -10 -3 -7
-25 3 -20 0 -31 -8 -31 -6 0 -14 13 -16 30 -3 16 -1 30 4 30 4 0 8 5 8 12 0 6
-3 9 -6 5 -3 -3 -15 3 -27 14 -34 31 -52 22 -21 -12 9 -10 11 -19 5 -23 -5 -4
-12 3 -16 14 -9 27 -35 26 -35 -2 0 -21 0 -21 -15 -2 -17 22 -20 38 -5 29 15
-9 12 11 -3 23 -7 6 -18 7 -26 3 -9 -6 -10 -11 -2 -15 16 -10 14 -26 -4 -26
-8 0 -15 4 -15 10 0 5 -8 6 -17 3 -17 -7 -17 -6 0 20 17 26 17 27 -3 27 -12 0
-18 -5 -15 -10 8 -13 -35 -13 -55 0 -12 8 -13 12 -2 19 11 7 11 9 0 14 -8 3
-20 -4 -27 -15 -9 -15 -15 -17 -26 -8 -10 8 -15 8 -20 0 -5 -8 -12 -4 -22 9
-8 12 -11 27 -7 34 6 9 4 9 -8 -1 -13 -10 -19 -10 -31 3 -17 17 -32 20 -22 6
3 -5 1 -12 -5 -16 -5 -3 -10 1 -10 9 0 9 -5 16 -11 16 -6 0 -9 -6 -6 -13 3 -8
1 -20 -4 -28 -8 -12 -10 -12 -8 1 5 53 -15 70 -24 20 -7 -32 -21 -39 -31 -15
-3 8 -1 15 5 15 6 0 8 4 4 9 -3 5 -18 9 -34 9 -18 -1 -42 9 -61 25 -37 31 -43
32 -60 12 -17 -20 -30 -3 -30 38 0 35 -36 39 -43 5 l-4 -23 -8 23 c-7 20 -27
28 -64 22 -10 -1 -12 7 -7 34 6 30 4 36 -10 36 -10 0 -14 -3 -11 -7 4 -3 2
-12 -4 -20 -13 -15 -49 -18 -49 -3 0 6 7 10 15 10 17 0 20 16 5 25 -5 3 -10 0
-11 -7 0 -10 -2 -10 -6 0 -2 6 -11 12 -19 12 -8 0 -14 5 -14 10 0 6 -9 10 -19
10 -35 0 -51 12 -51 36 0 28 -25 33 -35 7 -6 -17 -7 -17 -20 0 -7 10 -24 21
-37 25 -20 6 -23 11 -17 32 7 24 7 24 8 3 1 -13 7 -23 16 -23 8 0 18 0 22 -1
14 -1 13 17 -3 36 -13 17 -15 17 -10 3 9 -30 -8 -20 -22 12 -14 32 -37 42 -28
13 8 -25 -9 -51 -18 -28 -3 9 -11 13 -18 9 -8 -5 -9 -2 -5 9 4 10 1 17 -6 17
-7 0 -4 7 6 14 22 17 7 30 -23 21 -22 -7 -63 11 -55 25 3 5 1 11 -5 15 -6 4
-8 11 -5 16 4 5 -9 9 -27 10 -27 0 -30 2 -13 9 18 8 17 9 -6 9 -19 1 -26 6
-25 18 1 17 -3 19 -39 22 -18 1 -21 47 -4 53 7 2 9 13 5 25 -7 22 -7 22 -27 2
-10 -10 -25 -19 -32 -19 -9 0 -9 2 1 9 10 6 8 10 -8 14 -20 5 -22 10 -16 41 6
34 5 36 -18 36 -20 0 -27 7 -34 33 -4 17 -14 32 -20 32 -7 0 -12 5 -13 10 0 6
-5 16 -11 23 -6 6 -7 12 -4 12 4 0 -1 12 -12 28 -33 48 -35 52 -15 46 14 -4
12 -1 -5 13 -31 26 -51 68 -45 94 4 15 3 20 -6 15 -6 -4 -8 -12 -5 -18 4 -6 1
-9 -7 -6 -8 3 -16 15 -17 29 -2 13 -8 28 -13 33 -5 6 -4 15 2 22 7 9 5 16 -10
23 -16 9 -19 18 -15 39 4 19 0 32 -10 41 -19 16 -21 42 -5 58 9 9 7 10 -10 6
-19 -5 -20 -2 -15 26 4 19 0 48 -9 74 -22 59 -28 130 -12 123 10 -3 13 8 13
42 0 26 -4 49 -8 52 -5 3 -9 37 -9 75 -1 132 4 178 17 183 13 4 17 32 5 32 -9
0 -8 108 1 137 3 10 6 38 7 63 2 66 28 196 55 270 13 36 26 85 30 110 7 42 64
184 117 289 12 25 22 47 23 50 1 11 15 46 25 63 5 10 9 25 9 33 0 22 50 139
62 146 6 4 7 12 3 19 -4 6 -3 22 3 33 17 36 62 162 62 174 0 17 49 172 66 211
8 17 19 32 24 32 5 0 12 9 15 20 4 11 11 18 16 15 5 -4 9 -1 9 5 0 7 -8 9 -20
5 -19 -6 -19 -5 3 37 13 24 27 50 32 57 4 8 9 26 11 40 3 34 32 101 43 101 5
0 12 10 16 23 4 13 8 17 12 10 6 -15 33 -17 33 -3 0 6 7 10 15 10 21 0 19 17
-4 36 -18 16 -18 54 0 54 5 0 9 6 9 13 0 17 67 93 75 85 4 -3 -5 -17 -19 -29
-14 -12 -26 -27 -26 -32 0 -17 51 3 78 31 30 31 38 74 14 70 -8 -2 -17 3 -19
10 -3 7 1 10 11 6 9 -3 16 -2 16 3 0 5 7 18 16 29 15 19 15 18 11 -3 -6 -27
-1 -29 20 -7 13 13 14 20 5 35 -15 24 -15 32 0 23 7 -5 9 -2 5 8 -3 9 1 24 9
35 14 17 15 16 9 -10 -4 -22 -3 -27 7 -20 13 8 18 9 38 12 6 0 10 5 10 11 0 5
-7 7 -15 4 -11 -5 -14 2 -13 30 1 20 6 40 12 44 6 4 22 28 35 55 37 74 81 119
81 83 0 -24 25 -25 48 -1 12 13 16 22 9 21 -6 0 -12 4 -12 9 0 6 4 9 9 7 5 -2
5 5 1 15 -11 30 -11 38 3 35 8 -1 16 6 19 17 3 11 11 17 18 14 9 -3 16 7 21
31 6 36 34 52 34 20 0 -15 2 -15 22 -2 21 14 41 47 20 34 -5 -3 -12 1 -16 9
-6 17 10 30 19 15 4 -7 14 -6 28 2 l22 12 -25 7 c-25 7 -24 7 5 10 17 1 35 2
42 2 6 0 14 15 18 34 5 28 10 34 25 30 12 -3 30 5 47 21 15 15 35 27 43 29 8
1 19 8 25 15 5 8 18 12 28 10 9 -2 17 1 17 7 0 6 5 11 10 11 6 0 10 -7 10 -15
0 -8 -6 -15 -13 -15 -8 0 -14 -6 -14 -14 0 -11 8 -9 31 7 36 25 46 38 40 48
-3 6 51 30 66 29 3 0 5 -9 5 -19 0 -11 6 -26 13 -33 17 -17 15 -28 -7 -28 -23
0 -36 -16 -21 -25 6 -4 8 -10 5 -15 -3 -5 1 -22 10 -37 13 -23 15 -24 12 -6
-3 15 -1 20 9 16 16 -6 19 22 4 32 -7 4 -7 12 0 25 5 10 10 27 10 37 0 15 8
19 36 21 38 3 62 13 86 34 8 7 21 18 30 23 8 6 39 27 69 48 57 39 109 49 109
21z m3735 -14 c3 -5 -3 -10 -15 -10 -12 0 -18 5 -15 10 3 6 10 10 15 10 5 0
12 -4 15 -10z m2445 1 c0 -5 -10 -13 -21 -16 -17 -6 -18 -9 -8 -16 11 -6 10
-9 -4 -15 -37 -14 -31 26 6 44 28 14 27 14 27 3z m-2663 -7 c-3 -3 -12 -4 -19
-1 -8 3 -5 6 6 6 11 1 17 -2 13 -5z m-2134 -10 c12 -4 12 -10 3 -29 -16 -35
-31 -37 -47 -9 -11 21 -11 27 1 34 18 11 23 12 43 4z m2324 -21 c3 -7 -4 -9
-16 -6 -12 3 -18 9 -15 15 7 11 26 6 31 -9z m-3397 -33 c0 -5 -5 -10 -11 -10
-5 0 -7 5 -4 10 3 6 8 10 11 10 2 0 4 -4 4 -10z m3456 -14 c9 -19 8 -25 -6
-34 -14 -8 -19 -6 -27 11 -6 12 -8 28 -6 35 7 20 27 14 39 -12z m-2340 -11
c10 -8 15 -14 9 -14 -5 0 -19 6 -29 14 -11 8 -15 15 -10 15 6 0 19 -7 30 -15z
m1774 -70 c14 -16 10 -18 -14 -9 -9 3 -16 10 -16 15 0 14 16 11 30 -6z m100
-19 c0 -2 -9 -2 -20 1 -11 3 -20 9 -20 15 0 5 9 4 20 -2 11 -6 20 -12 20 -14z
m-56 -12 c9 -24 2 -26 -12 -4 -7 11 -8 20 -3 20 5 0 12 -7 15 -16z m-3144 -55
c0 -5 -4 -9 -10 -9 -5 0 -10 7 -10 16 0 8 5 12 10 9 6 -3 10 -10 10 -16z
m3099 -15 c-8 -10 -8 -14 0 -14 6 0 11 -7 11 -15 0 -8 -5 -15 -11 -15 -5 0 -8
4 -4 9 3 5 1 12 -5 16 -6 4 -8 11 -5 16 4 5 0 9 -7 9 -10 0 -9 3 2 9 20 13 34
2 19 -15z m141 4 c0 -18 -2 -20 -9 -8 -6 8 -7 18 -5 22 9 14 14 9 14 -14z
m-230 -8 c0 -5 -4 -10 -10 -10 -5 0 -10 5 -10 10 0 6 5 10 10 10 6 0 10 -4 10
-10z m140 -15 c0 -8 -4 -17 -10 -20 -5 -3 -10 -2 -10 4 0 5 -3 17 -6 25 -5 12
-2 15 10 10 9 -3 16 -12 16 -19z m-2310 -21 l25 -15 -25 7 c-14 3 -29 10 -34
15 -16 14 6 10 34 -7z m1944 -3 c3 -5 -1 -12 -10 -15 -8 -3 -13 -2 -9 3 3 5
-1 12 -7 14 -8 4 -7 6 4 6 9 1 19 -3 22 -8z m-1950 -36 c3 -8 1 -15 -3 -15 -5
0 -11 7 -15 15 -3 8 -1 15 3 15 5 0 11 -7 15 -15z m1893 -45 c-1 -11 -5 -20
-9 -20 -10 0 -10 4 -2 24 8 22 13 20 11 -4z m53 -2 c0 -16 -3 -19 -11 -11 -6
6 -8 16 -5 22 11 17 16 13 16 -11z m-2623 -20 c-3 -8 -6 -5 -6 6 -1 11 2 17 5
13 3 -3 4 -12 1 -19z m601 -22 c4 -17 2 -17 -22 -1 -32 21 -34 37 -3 26 12 -5
24 -16 25 -25z m-738 -107 c0 -14 -17 -10 -23 5 -4 10 -1 13 9 9 7 -3 14 -9
14 -14z m130 -73 c0 -3 -4 -8 -10 -11 -5 -3 -10 -1 -10 4 0 6 5 11 10 11 6 0
10 -2 10 -4z m0 -36 c0 -5 -4 -10 -10 -10 -5 0 -10 5 -10 10 0 6 5 10 10 10 6
0 10 -4 10 -10z m-23 -122 c-3 -7 -5 -2 -5 12 0 14 2 19 5 13 2 -7 2 -19 0
-25z m7 -47 c8 -12 -3 -41 -15 -41 -5 0 -9 11 -9 25 0 25 14 34 24 16z m-1460
-105 c-6 -16 -8 -17 -16 -2 -11 19 0 42 13 29 6 -6 7 -18 3 -27z m1409 -71
c-3 -13 -9 -23 -13 -20 -4 2 -5 16 -3 30 3 13 9 23 13 20 4 -2 5 -16 3 -30z
m-180 -152 c-6 -36 -30 -52 -40 -25 -4 9 -11 20 -17 24 -13 8 -8 13 23 23 18
5 22 4 17 -6 -4 -8 -1 -6 6 3 16 22 17 20 11 -19z m5732 -203 c3 -5 -1 -10
-10 -10 -9 0 -13 5 -10 10 3 6 8 10 10 10 2 0 7 -4 10 -10z m-139 -77 c-10
-10 -19 5 -10 18 6 11 8 11 12 0 2 -7 1 -15 -2 -18z m-5621 -41 c3 -9 3 -13
-1 -10 -14 15 -44 -13 -43 -40 1 -15 -3 -38 -9 -52 -11 -25 -11 -25 -11 7 -1
17 -3 38 -6 45 -3 8 3 23 13 33 16 18 17 21 4 31 -12 9 -8 10 16 6 17 -2 33
-11 37 -20z m-78 -174 c-3 -7 -5 -2 -5 12 0 14 2 19 5 13 2 -7 2 -19 0 -25z
m38 -9 c-5 -16 -4 -20 6 -15 8 4 5 0 -5 -8 -17 -14 -18 -16 -3 -16 9 0 17 -5
17 -11 0 -5 -4 -7 -10 -4 -9 5 -14 -27 -13 -72 1 -7 -3 -11 -7 -8 -8 5 -26
-70 -22 -87 1 -5 -13 -8 -30 -8 -28 1 -30 2 -15 11 12 7 16 17 12 30 -5 15 -1
22 14 26 24 6 26 15 9 46 -10 20 -10 21 6 8 16 -14 17 -13 13 17 -3 18 -1 32
4 32 5 0 7 10 5 23 -1 12 2 30 8 40 15 23 19 22 11 -4z m2505 -152 c0 -5 -4
-5 -10 -2 -5 3 -10 14 -10 23 0 15 2 15 10 2 5 -8 10 -19 10 -23z m2877 -558
c88 -11 172 -38 195 -61 10 -10 25 -17 31 -15 7 2 20 -5 30 -16 9 -11 17 -15
17 -9 0 34 65 -18 76 -62 3 -14 15 -28 25 -31 10 -4 19 -12 19 -20 0 -7 11
-16 24 -19 14 -3 32 -13 40 -22 9 -8 25 -16 36 -17 11 -1 20 -6 20 -13 0 -6
18 -19 39 -29 28 -12 38 -22 34 -33 -4 -10 -2 -13 5 -8 7 4 12 2 12 -4 0 -7 7
-9 16 -6 12 4 14 1 9 -14 -5 -14 -2 -20 9 -20 9 0 16 -7 16 -16 0 -12 5 -11
19 7 l20 24 -6 -22 c-4 -17 -1 -23 11 -23 9 0 13 -6 10 -15 -3 -8 1 -21 9 -30
14 -13 17 -13 30 0 13 12 15 11 20 -10 3 -18 0 -25 -12 -26 -12 0 -11 -2 4 -8
13 -5 25 -3 34 7 11 11 16 12 19 2 2 -6 -1 -17 -7 -23 -18 -18 -13 -30 10 -24
16 4 19 2 15 -10 -5 -13 -4 -14 9 -3 12 10 15 10 15 -4 0 -9 5 -16 10 -16 6 0
10 -7 10 -16 0 -14 3 -14 15 -4 16 13 19 3 15 -47 -1 -14 4 -23 12 -23 8 0 22
-14 32 -31 17 -29 19 -29 33 -12 8 10 12 12 8 5 -10 -20 4 -52 21 -45 10 4 14
-2 14 -22 0 -24 3 -27 25 -23 20 4 23 3 14 -8 -9 -11 -7 -20 6 -40 16 -25 16
-25 -4 -15 -33 18 -35 12 -5 -11 16 -13 30 -22 32 -20 9 8 40 -41 35 -55 -5
-12 -3 -14 7 -8 8 5 11 4 6 -3 -3 -6 -2 -13 4 -17 5 -3 10 -1 10 5 0 23 19 -1
26 -33 5 -23 8 -27 13 -15 5 15 8 15 26 2 17 -13 18 -16 5 -24 -8 -5 -24 -7
-35 -5 -11 3 -14 2 -7 -1 17 -8 15 -25 -2 -18 -16 6 -46 -21 -46 -44 0 -13 2
-13 15 4 14 18 14 18 15 0 0 -15 3 -16 14 -7 12 10 13 8 9 -8 -3 -12 -1 -21 6
-21 6 0 11 -7 11 -15 0 -8 5 -15 11 -15 16 0 39 -27 39 -46 0 -10 3 -14 7 -10
4 3 15 -13 26 -36 11 -24 24 -46 29 -49 6 -4 1 -16 -11 -28 -18 -18 -19 -22
-6 -27 13 -5 13 -9 3 -22 -9 -11 -10 -16 -2 -19 22 -7 3 -43 -22 -43 -21 0
-23 -4 -18 -25 4 -15 2 -25 -5 -25 -17 0 -1 -28 20 -33 16 -4 18 -9 9 -31 -6
-17 -6 -26 0 -26 6 0 10 -5 10 -11 0 -5 -4 -7 -10 -4 -5 3 -10 0 -10 -7 0 -8
-7 -24 -16 -37 -14 -20 -18 -21 -25 -8 -5 9 -20 14 -35 12 -18 -2 -24 2 -20
11 3 8 1 14 -4 14 -6 0 -10 -4 -10 -10 0 -16 -40 -12 -46 5 -4 8 -10 12 -15 9
-5 -3 -9 -1 -9 4 0 5 -6 9 -13 9 -21 0 -77 45 -77 63 0 25 -34 21 -46 -5 -9
-18 -9 -25 0 -29 6 -2 1 -5 -11 -5 -18 -1 -42 -36 -34 -50 2 -2 -2 -7 -8 -10
-5 -4 -12 -18 -14 -31 -20 -105 -89 -146 -141 -85 l-24 28 -7 -31 c-4 -22 -11
-29 -21 -25 -8 3 -13 11 -11 17 8 19 -12 56 -30 56 -15 0 -15 -1 2 -13 15 -12
16 -15 4 -23 -25 -15 -39 -13 -39 7 0 13 -6 19 -17 17 -11 -2 -19 6 -24 22 -4
14 -7 22 -8 18 -1 -4 -16 9 -35 30 -39 42 -58 41 -21 -2 14 -16 22 -32 20 -36
-3 -4 2 -13 10 -20 8 -7 13 -16 10 -20 -3 -5 -1 -11 5 -15 25 -15 6 -26 -41
-24 -39 2 -53 -1 -60 -14 -9 -15 -11 -15 -29 3 -11 11 -27 20 -35 20 -8 0 -15
7 -15 15 0 9 -9 19 -19 23 -19 7 -21 10 -21 32 0 6 -9 10 -20 10 -11 0 -19 4
-18 8 5 15 -90 112 -109 112 -14 0 -15 2 -5 9 19 12 -5 51 -26 43 -10 -3 -13
-1 -8 6 8 13 -37 85 -47 75 -4 -3 -7 -1 -7 6 0 7 -4 9 -10 6 -5 -3 -7 0 -4 9
4 10 -2 17 -20 22 -17 4 -25 12 -24 23 2 10 -3 15 -14 15 -10 -1 -23 10 -30
27 -7 16 -20 29 -30 29 -9 0 -30 14 -47 30 -16 17 -41 31 -55 32 -15 1 -27 10
-31 23 -4 13 -8 15 -12 8 -2 -7 -10 -13 -16 -13 -5 0 -7 3 -4 7 4 3 2 12 -3
19 -6 6 -9 18 -8 25 3 16 -33 13 -43 -3 -3 -5 -8 -1 -11 9 -4 13 -21 24 -51
32 -25 7 -48 19 -51 26 -3 8 -13 12 -23 11 -10 -2 -31 5 -48 16 -16 10 -38 21
-47 24 -10 4 -18 12 -18 18 0 7 -10 12 -22 12 -18 -1 -24 5 -26 27 -3 24 -5
25 -18 12 -17 -17 -34 -20 -34 -6 0 5 -8 7 -17 5 -30 -7 -47 10 -34 35 7 12 8
21 2 21 -5 0 -11 -4 -13 -10 -5 -16 -63 5 -62 22 1 10 -13 20 -37 27 -23 7
-39 18 -39 27 0 8 -11 19 -24 25 -13 6 -30 22 -37 35 -7 13 -16 24 -21 24 -18
0 -7 40 19 67 20 22 25 24 19 8 -6 -16 -5 -18 5 -7 10 9 10 15 1 24 -9 9 -6
15 16 24 20 9 22 13 9 13 -31 2 -13 26 22 29 22 2 31 8 27 17 -2 7 2 16 11 19
10 4 12 10 6 19 -5 6 -9 19 -8 27 2 26 27 80 36 80 4 0 6 7 3 15 -4 8 -12 15
-20 15 -8 0 -14 9 -14 19 0 11 -6 21 -12 23 -9 3 -8 10 5 22 9 10 15 21 12 26
-7 12 37 100 47 94 4 -3 5 3 1 12 -5 13 -3 15 7 9 9 -5 11 -4 6 4 -6 9 -14 8
-33 -4 -38 -26 -36 -13 8 40 39 47 81 84 87 76 6 -7 61 22 56 30 -3 5 2 9 10
9 9 0 16 5 16 12 0 6 3 8 6 5 4 -3 15 -2 25 4 18 9 78 24 144 34 17 3 42 7 58
10 15 2 27 0 27 -5 0 -6 8 -10 18 -10 13 0 14 2 3 9 -9 6 0 10 30 13 28 3 49
0 58 -8 11 -10 19 -9 45 7 17 10 38 16 46 13 8 -4 43 -10 77 -15z m-1017 -49
c0 -5 -4 -10 -9 -10 -6 0 -13 5 -16 10 -3 6 1 10 9 10 9 0 16 -4 16 -10z m430
-29 c0 -5 -7 -12 -16 -15 -14 -5 -15 -4 -4 9 14 17 20 19 20 6z m-185 -421 c3
-5 1 -10 -4 -10 -6 0 -11 5 -11 10 0 6 2 10 4 10 3 0 8 -4 11 -10z m-85 -139
c0 -11 -4 -23 -10 -26 -6 -3 -7 1 -4 9 3 9 1 16 -5 16 -6 0 -11 5 -11 10 0 6
7 10 15 10 8 0 15 -9 15 -19z m1816 -48 c-10 -10 -19 5 -10 18 6 11 8 11 12 0
2 -7 1 -15 -2 -18z m-6698 -32 c-10 -16 -15 -17 -26 -8 -12 9 -11 12 5 18 30
12 34 10 21 -10z m1599 -33 c-3 -8 -6 -5 -6 6 -1 11 2 17 5 13 3 -3 4 -12 1
-19z m-1597 -27 c0 -11 6 -21 13 -24 17 -6 7 -14 -27 -23 -22 -5 -27 -4 -24 7
3 8 10 13 15 12 6 -1 9 9 7 22 -1 14 2 25 7 25 5 0 9 -9 9 -19z m1670 3 c0 -2
-7 -4 -15 -4 -8 0 -15 4 -15 10 0 5 7 7 15 4 8 -4 15 -8 15 -10z m2977 -146
c-3 -8 -6 -5 -6 6 -1 11 2 17 5 13 3 -3 4 -12 1 -19z m-4542 -98 c3 -5 1 -10
-4 -10 -6 0 -11 5 -11 10 0 6 2 10 4 10 3 0 8 -4 11 -10z m-1705 -40 c0 -5 -4
-10 -10 -10 -5 0 -10 5 -10 10 0 6 5 10 10 10 6 0 10 -4 10 -10z m8593 -19
c-2 -6 2 -11 7 -11 6 0 10 -3 10 -7 0 -5 -15 -8 -34 -9 -27 0 -33 3 -28 15 10
29 51 40 45 12z m32 -51 c3 -5 -1 -10 -10 -10 -9 0 -13 5 -10 10 3 6 8 10 10
10 2 0 7 -4 10 -10z m-6742 -33 c4 3 7 -1 7 -10 0 -11 5 -14 18 -10 14 5 15 3
5 -7 -10 -11 -16 -10 -33 5 -11 10 -20 15 -20 11 0 -4 -5 -4 -10 -1 -6 4 -8
11 -4 16 4 6 10 6 18 0 7 -6 16 -8 19 -4z m917 -47 c0 -5 -2 -10 -4 -10 -3 0
-8 5 -11 10 -3 6 -1 10 4 10 6 0 11 -4 11 -10z m-727 -210 c3 -11 2 -20 -3
-20 -4 0 -10 9 -13 20 -3 11 -2 20 3 20 4 0 10 -9 13 -20z m162 -10 c-3 -5
-10 -10 -16 -10 -5 0 -9 5 -9 10 0 6 7 10 16 10 8 0 12 -4 9 -10z m878 -80
c-3 -11 -9 -17 -14 -15 -10 7 -1 35 11 35 5 0 6 -9 3 -20z m-97 -175 c-17 -17
-36 -20 -36 -4 0 6 -9 8 -20 4 -15 -5 -18 -3 -14 9 3 9 10 13 15 10 5 -3 9 0
9 6 0 7 7 10 15 6 9 -3 20 4 27 17 13 22 13 22 16 -6 2 -15 -3 -34 -12 -42z
m94 30 c-5 -6 -7 -15 -3 -18 3 -4 -1 -7 -10 -7 -11 0 -16 8 -15 24 2 17 7 22
20 18 13 -3 16 -8 8 -17z m40 -6 c0 -6 -4 -7 -10 -4 -5 3 -10 11 -10 16 0 6 5
7 10 4 6 -3 10 -11 10 -16z m2855 -67 c-3 -3 -11 0 -18 7 -9 10 -8 11 6 5 10
-3 15 -9 12 -12z m-3041 -68 c3 -8 2 -12 -4 -9 -6 3 -10 10 -10 16 0 14 7 11
14 -7z m71 -254 c3 -5 1 -10 -4 -10 -6 0 -11 5 -11 10 0 6 2 10 4 10 3 0 8 -4
11 -10z m-47 -72 c-6 -18 -28 -21 -28 -4 0 9 7 16 16 16 9 0 14 -5 12 -12z
m32 -92 c0 -3 -4 -8 -10 -11 -5 -3 -10 -1 -10 4 0 6 5 11 10 11 6 0 10 -2 10
-4z m1294 -189 c11 -10 6 -16 -25 -29 -34 -15 -39 -15 -39 -1 0 8 9 17 20 20
11 3 20 9 20 14 0 13 9 11 24 -4z m61 3 c3 -5 2 -10 -4 -10 -5 0 -13 5 -16 10
-3 6 -2 10 4 10 5 0 13 -4 16 -10z m35 0 c0 -5 -4 -10 -10 -10 -5 0 -10 5 -10
10 0 6 5 10 10 10 6 0 10 -4 10 -10z m-432 -15 c1 -1 0 -9 -3 -17 -5 -13 -10
-13 -40 0 -41 19 -36 34 8 25 18 -3 33 -7 35 -8z m251 -16 c-11 -22 -10 -22
-46 -8 l-28 11 30 13 c38 17 58 10 44 -16z m-219 -9 c0 -11 -7 -20 -15 -20
-16 0 -16 20 0 32 14 11 15 10 15 -12z m784 7 c3 4 6 1 6 -5 0 -7 -16 -12 -40
-12 -22 0 -40 4 -40 9 0 14 23 19 46 10 12 -4 25 -5 28 -2z m-3670 -89 c-9
-15 -22 -8 -19 10 2 9 4 19 4 22 1 3 5 -2 10 -10 6 -8 7 -18 5 -22z m2114 -6
c2 -15 -2 -22 -12 -22 -9 0 -18 -11 -22 -25 -8 -34 -34 -33 -32 2 2 15 10 28
21 31 12 3 16 10 11 24 -5 15 -2 19 13 16 10 -2 19 -13 21 -26z m-1868 -45 c0
-11 -1 -18 -3 -16 -1 2 -10 14 -21 26 -17 21 -17 21 3 16 13 -3 21 -13 21 -26z
m1870 -22 c0 -8 -4 -15 -10 -15 -5 0 -10 7 -10 15 0 8 5 15 10 15 6 0 10 -7
10 -15z m-1712 -33 c6 -18 -15 -14 -22 4 -4 10 -1 14 6 12 6 -2 14 -10 16 -16z
m46 -21 c3 -5 -1 -14 -8 -20 -12 -10 -13 -8 -9 8 6 23 9 25 17 12z m1627 -34
c-10 -9 -11 -8 -5 6 3 10 9 15 12 12 3 -3 0 -11 -7 -18z m-1511 -16 c0 -6 -4
-13 -10 -16 -5 -3 -10 1 -10 9 0 9 5 16 10 16 6 0 10 -4 10 -9z"/>
<path d="M2777 8561 c-4 -17 -3 -21 5 -13 5 5 8 16 6 23 -3 8 -7 3 -11 -10z"/>
<path d="M3031 8519 c7 -14 14 -18 21 -11 13 13 2 32 -18 32 -12 0 -13 -4 -3
-21z"/>
<path d="M2866 8515 c-2 -7 3 -12 11 -11 9 0 17 -7 18 -16 2 -10 -2 -15 -9
-12 -7 3 -13 -2 -13 -10 0 -8 8 -17 18 -19 13 -3 18 3 21 24 3 16 1 29 -4 29
-4 0 -8 5 -8 11 0 5 6 7 13 3 6 -4 9 -3 4 1 -12 13 -46 13 -51 0z"/>
<path d="M3633 8503 c0 -16 1 -20 4 -10 2 9 9 17 14 17 6 0 7 5 4 10 -11 18
-21 10 -22 -17z"/>
<path d="M3740 8490 c-8 -26 -7 -41 2 -32 6 6 8 16 5 24 -3 7 -6 11 -7 8z"/>
<path d="M2860 8430 c-13 -8 -12 -10 4 -10 12 0 16 -5 12 -16 -3 -8 -2 -13 3
-10 5 3 11 -1 15 -9 3 -8 12 -15 20 -15 14 0 32 -35 28 -52 -1 -5 5 -8 13 -8
8 0 16 3 16 8 7 44 6 62 -2 57 -5 -4 -9 3 -9 14 0 19 -10 26 -32 22 -5 0 -8 4
-8 10 0 6 -9 9 -20 6 -10 -3 -20 -1 -22 4 -2 4 -10 4 -18 -1z"/>
<path d="M2808 8364 c-8 -8 3 -44 13 -44 5 0 9 7 9 16 0 14 2 14 16 3 14 -12
12 -16 -17 -39 -18 -16 -29 -32 -25 -38 4 -7 2 -12 -4 -12 -8 0 -10 -9 -6 -24
4 -18 2 -23 -12 -22 -12 1 -16 -5 -14 -19 5 -24 3 -22 27 -27 15 -2 20 2 18
17 -1 15 4 21 19 22 24 2 51 23 29 23 -7 0 -9 5 -6 10 9 15 25 12 25 -4 0 -18
27 -28 33 -12 6 15 -15 44 -28 39 -6 -2 -16 10 -22 27 -9 25 -9 30 7 35 10 3
23 4 30 3 7 -2 15 3 18 11 3 10 -1 13 -17 8 -15 -3 -21 -1 -21 10 0 12 -8 14
-35 10 -21 -3 -33 -2 -30 4 7 10 2 12 -7 3z m47 -113 c-3 -6 -11 -8 -17 -5 -6
4 -5 9 3 15 16 10 23 4 14 -10z"/>
<path d="M3741 8314 c0 -11 3 -14 6 -6 3 7 2 16 -1 19 -3 4 -6 -2 -5 -13z"/>
<path d="M2880 8301 c0 -9 30 -24 36 -18 2 1 -6 8 -16 15 -11 7 -20 8 -20 3z"/>
<path d="M3731 8281 c-7 -5 -10 -14 -6 -21 4 -6 -1 -17 -11 -25 -11 -8 -14
-15 -7 -15 6 0 17 -2 25 -5 9 -4 14 6 16 35 3 44 3 43 -17 31z"/>
<path d="M2616 8208 c3 -5 10 -6 15 -3 13 9 11 12 -6 12 -8 0 -12 -4 -9 -9z"/>
<path d="M2860 8181 c0 -5 6 -12 13 -14 7 -3 5 -6 -6 -6 -13 -1 -17 -8 -15
-29 1 -15 -1 -33 -5 -39 -9 -14 9 -27 23 -18 6 4 7 12 3 18 -14 22 -14 58 -1
55 23 -5 25 27 3 36 -8 3 -15 1 -15 -3z"/>
<path d="M2715 8170 c-3 -5 -1 -10 4 -10 6 0 11 5 11 10 0 6 -2 10 -4 10 -3 0
-8 -4 -11 -10z"/>
<path d="M2701 8134 c0 -11 3 -14 6 -6 3 7 2 16 -1 19 -3 4 -6 -2 -5 -13z"/>
<path d="M2740 8131 c0 -10 28 -41 36 -41 2 0 4 11 4 25 0 18 -5 25 -20 25
-11 0 -20 -4 -20 -9z"/>
<path d="M2723 8083 c17 -4 17 -6 2 -29 -20 -31 -11 -46 22 -38 24 6 24 5 13
-16 -10 -18 -9 -24 1 -30 7 -5 18 -6 24 -4 7 3 15 -2 19 -11 8 -21 26 -10 26
17 0 12 8 30 18 41 16 19 16 19 -8 12 -24 -7 -24 -7 -5 9 20 15 19 16 -5 12
-14 -2 -26 -9 -26 -17 -1 -8 -2 -20 -3 -27 0 -7 -6 -10 -11 -7 -6 4 -8 15 -5
26 5 13 2 19 -10 19 -9 0 -15 6 -12 13 5 14 -22 37 -43 36 -10 -1 -9 -3 3 -6z"/>
<path d="M2784 8068 c-7 -11 18 -10 36 2 11 7 10 9 -8 7 -13 -1 -26 -5 -28 -9z"/>
<path d="M2685 8009 c-4 -11 -4 -23 -1 -26 3 -4 6 0 6 8 0 11 2 11 10 -1 8
-12 10 -11 10 7 0 30 -17 38 -25 12z"/>
<path d="M2720 7990 c0 -5 5 -10 10 -10 6 0 10 5 10 10 0 6 -4 10 -10 10 -5 0
-10 -4 -10 -10z"/>
<path d="M2705 7960 c-4 -6 -11 -8 -16 -5 -5 4 -9 2 -9 -4 0 -19 19 -21 29 -4
6 10 11 13 11 7 0 -5 -6 -19 -14 -29 -9 -12 -12 -32 -9 -52 5 -29 3 -33 -16
-33 -11 0 -21 -5 -21 -11 0 -6 -8 -8 -17 -5 -16 5 -16 4 -3 -6 9 -7 15 -20 14
-28 0 -8 -2 -26 -3 -40 l-3 -25 -8 25 c-5 15 -8 18 -9 8 -1 -9 -7 -19 -13 -22
-10 -5 -10 -7 0 -12 6 -3 10 -9 8 -13 -3 -4 -1 -13 5 -21 7 -12 9 -10 9 7 0
18 5 22 30 20 22 -1 29 -6 24 -17 -7 -16 -8 -38 -4 -85 1 -18 4 -23 7 -12 2 9
9 17 14 17 5 0 9 7 9 16 0 8 5 12 10 9 6 -3 10 -1 10 4 0 6 -9 11 -20 11 -11
0 -20 5 -20 11 0 6 9 8 22 4 17 -6 20 -4 15 10 -4 9 -7 20 -7 23 0 4 -4 2 -8
-5 -5 -8 -11 0 -18 22 -8 26 -8 32 3 28 7 -3 13 -11 13 -19 0 -8 9 -14 20 -14
14 0 20 7 20 23 0 12 7 35 15 50 8 15 10 25 6 22 -12 -7 -21 19 -11 35 4 7 12
10 18 6 5 -3 12 5 14 19 4 17 1 25 -8 25 -8 0 -11 -6 -8 -15 4 -10 2 -13 -8
-10 -7 3 -15 20 -16 37 -2 26 0 29 12 19 10 -8 16 -9 21 -1 9 14 -38 31 -47
16 -5 -7 -8 -5 -8 7 0 18 -25 24 -35 7z m35 -71 c0 -5 -4 -9 -10 -9 -5 0 -10
7 -10 16 0 8 5 12 10 9 6 -3 10 -10 10 -16z m-5 -59 c-3 -5 -10 -10 -16 -10
-5 0 -9 5 -9 10 0 6 7 10 16 10 8 0 12 -4 9 -10z m25 -34 c-6 -6 -11 -19 -11
-30 -1 -17 -2 -18 -6 -3 -5 19 -19 23 -25 6 -2 -6 -14 0 -28 12 -14 12 -18 20
-9 16 9 -3 21 -2 26 1 18 11 63 8 53 -2z"/>
<path d="M2668 7863 c7 -3 16 -2 19 1 4 3 -2 6 -13 5 -11 0 -14 -3 -6 -6z"/>
<path d="M2655 7680 c-10 -11 -13 -20 -8 -20 13 0 38 29 31 35 -3 3 -13 -4
-23 -15z"/>
<path d="M2720 7545 c0 -8 2 -15 4 -15 2 0 11 -3 20 -6 23 -9 20 9 -4 24 -17
10 -20 10 -20 -3z"/>
<path d="M6290 6969 c0 -5 5 -7 10 -4 6 3 10 8 10 11 0 2 -4 4 -10 4 -5 0 -10
-5 -10 -11z"/>
<path d="M4680 6942 c0 -5 7 -9 15 -9 8 0 12 4 9 9 -3 4 -9 8 -15 8 -5 0 -9
-4 -9 -8z"/>
<path d="M6470 6912 c0 -5 7 -9 15 -9 8 0 12 4 9 9 -3 4 -9 8 -15 8 -5 0 -9
-4 -9 -8z"/>
<path d="M6170 6890 c0 -5 5 -10 11 -10 5 0 7 5 4 10 -3 6 -8 10 -11 10 -2 0
-4 -4 -4 -10z"/>
<path d="M3945 6880 c3 -5 8 -10 11 -10 2 0 4 5 4 10 0 6 -5 10 -11 10 -5 0
-7 -4 -4 -10z"/>
<path d="M6466 6875 c-4 -10 1 -15 16 -15 17 0 18 2 8 15 -7 8 -14 15 -15 15
-2 0 -5 -7 -9 -15z"/>
<path d="M6106 6871 c-4 -7 -5 -15 -2 -18 9 -9 19 4 14 18 -4 11 -6 11 -12 0z"/>
<path d="M4120 6850 c0 -5 5 -10 10 -10 6 0 10 5 10 10 0 6 -4 10 -10 10 -5 0
-10 -4 -10 -10z"/>
<path d="M3957 6832 c-15 -3 -16 -6 -5 -20 7 -9 8 -13 2 -9 -17 10 -23 -47 -8
-61 10 -9 15 -9 20 0 4 7 2 14 -4 16 -8 2 -6 11 6 27 l17 23 38 -19 c20 -11
37 -15 37 -9 0 5 -6 10 -14 10 -8 0 -27 10 -43 23 -15 13 -36 21 -46 19z"/>
<path d="M6390 6766 c0 -2 7 -7 16 -10 8 -3 12 -2 9 4 -6 10 -25 14 -25 6z"/>
<path d="M3875 6749 c-10 -15 3 -25 16 -12 7 7 7 13 1 17 -6 3 -14 1 -17 -5z"/>
<path d="M6473 6743 c-7 -2 -13 -9 -13 -15 0 -6 7 -8 15 -4 10 4 15 -1 15 -14
0 -25 16 -26 22 -2 9 35 -6 49 -39 35z"/>
<path d="M3846 6705 c-5 -14 22 -51 31 -42 6 7 -8 57 -17 57 -4 0 -10 -7 -14
-15z"/>
<path d="M6420 6716 c0 -2 7 -6 15 -10 8 -3 15 -1 15 4 0 6 -7 10 -15 10 -8 0
-15 -2 -15 -4z"/>
<path d="M3745 6700 c3 -5 8 -10 11 -10 2 0 4 5 4 10 0 6 -5 10 -11 10 -5 0
-7 -4 -4 -10z"/>
<path d="M4761 6679 c0 -9 5 -22 12 -28 10 -8 14 -7 14 4 0 8 -4 12 -8 9 -4
-2 -10 4 -12 13 -4 15 -5 15 -6 2z"/>
<path d="M6475 6670 c3 -5 13 -10 21 -10 8 0 12 5 9 10 -3 6 -13 10 -21 10 -8
0 -12 -4 -9 -10z"/>
<path d="M6080 6640 c0 -5 5 -10 11 -10 5 0 7 5 4 10 -3 6 -8 10 -11 10 -2 0
-4 -4 -4 -10z"/>
<path d="M6440 6646 c0 -2 7 -7 16 -10 8 -3 12 -2 9 4 -6 10 -25 14 -25 6z"/>
<path d="M4490 6630 c0 -5 5 -10 11 -10 5 0 7 5 4 10 -3 6 -8 10 -11 10 -2 0
-4 -4 -4 -10z"/>
<path d="M5670 6600 c-8 -5 -23 -7 -32 -4 -20 6 -21 3 -12 -20 3 -9 13 -16 21
-16 8 0 12 4 8 9 -3 5 4 12 15 16 11 3 20 11 20 16 0 11 -1 11 -20 -1z"/>
<path d="M5882 6559 c-13 -20 -9 -39 7 -39 11 0 21 49 12 55 -4 2 -13 -5 -19
-16z"/>
<path d="M6481 6564 c0 -11 3 -14 6 -6 3 7 2 16 -1 19 -3 4 -6 -2 -5 -13z"/>
<path d="M4775 6540 c-3 -6 1 -7 9 -4 18 7 21 14 7 14 -6 0 -13 -4 -16 -10z"/>
<path d="M5866 6493 c-6 -14 -5 -15 5 -6 7 7 10 15 7 18 -3 3 -9 -2 -12 -12z"/>
<path d="M4520 6490 c-13 -8 -12 -10 3 -10 9 0 17 5 17 10 0 12 -1 12 -20 0z"/>
<path d="M5755 6490 c-3 -6 1 -13 10 -16 21 -9 26 -2 10 13 -9 8 -16 9 -20 3z"/>
<path d="M3465 6480 c-3 -5 1 -10 10 -10 9 0 13 5 10 10 -3 6 -8 10 -10 10 -2
0 -7 -4 -10 -10z"/>
<path d="M4470 6449 c0 -5 5 -7 10 -4 6 3 10 8 10 11 0 2 -4 4 -10 4 -5 0 -10
-5 -10 -11z"/>
<path d="M3480 6429 c0 -5 5 -7 10 -4 6 3 10 8 10 11 0 2 -4 4 -10 4 -5 0 -10
-5 -10 -11z"/>
<path d="M5905 6430 c3 -5 11 -10 16 -10 6 0 7 5 4 10 -3 6 -11 10 -16 10 -6
0 -7 -4 -4 -10z"/>
<path d="M5790 6425 c0 -2 7 -8 15 -15 12 -10 15 -10 15 2 0 8 -7 15 -15 15
-8 0 -15 -1 -15 -2z"/>
<path d="M5812 6381 c-10 -6 -10 -10 3 -21 13 -11 15 -9 15 9 0 24 0 24 -18
12z"/>
<path d="M5880 6309 c0 -15 18 -19 23 -6 3 8 -1 14 -9 14 -8 0 -14 -4 -14 -8z"/>
<path d="M4828 6295 c-3 -3 -3 -17 0 -32 l5 -26 13 24 c12 23 10 39 -5 39 -4
0 -10 -2 -13 -5z"/>
<path d="M5830 6277 c0 -18 5 -27 15 -27 13 0 14 4 4 23 -17 33 -19 33 -19 4z"/>
<path d="M5840 6202 c0 -11 7 -22 15 -26 9 -3 15 0 15 8 0 7 -7 19 -15 26 -12
10 -15 9 -15 -8z"/>
<path d="M5935 6120 c-3 -5 -1 -10 4 -10 6 0 11 5 11 10 0 6 -2 10 -4 10 -3 0
-8 -4 -11 -10z"/>
<path d="M5882 6050 c0 -14 2 -19 5 -12 2 6 2 18 0 25 -3 6 -5 1 -5 -13z"/>
<path d="M5950 5985 c0 -8 2 -15 4 -15 2 0 6 7 10 15 3 8 1 15 -4 15 -6 0 -10
-7 -10 -15z"/>
<path d="M5161 4394 c0 -11 3 -14 6 -6 3 7 2 16 -1 19 -3 4 -6 -2 -5 -13z"/>
<path d="M5165 4280 c-3 -5 -1 -10 4 -10 6 0 11 5 11 10 0 6 -2 10 -4 10 -3 0
-8 -4 -11 -10z"/>
<path d="M5196 4013 c-11 -11 -6 -23 9 -23 8 0 15 4 15 9 0 13 -16 22 -24 14z"/>
<path d="M3768 3963 c7 -3 16 -2 19 1 4 3 -2 6 -13 5 -11 0 -14 -3 -6 -6z"/>
<path d="M3577 3854 c-3 -3 -3 -12 0 -20 4 -10 9 -11 23 -1 14 8 16 13 7 19
-15 9 -22 10 -30 2z"/>
<path d="M3538 3813 c-19 -5 -25 -33 -7 -33 5 0 7 5 3 12 -5 7 0 9 14 6 15 -4
19 -2 15 8 -3 8 -6 13 -7 13 0 -1 -9 -3 -18 -6z"/>
<path d="M3470 3743 c0 -32 15 -61 27 -50 4 4 2 16 -5 27 -6 10 -7 20 -3 22 5
2 3 9 -5 16 -12 11 -14 8 -14 -15z"/>
<path d="M3510 3761 c0 -5 5 -13 10 -16 6 -3 10 -2 10 4 0 5 -4 13 -10 16 -5
3 -10 2 -10 -4z"/>
<path d="M3001 3744 c0 -11 3 -14 6 -6 3 7 2 16 -1 19 -3 4 -6 -2 -5 -13z"/>
<path d="M5265 3740 c-3 -6 1 -7 9 -4 18 7 21 14 7 14 -6 0 -13 -4 -16 -10z"/>
<path d="M3547 3734 c-8 -8 1 -24 14 -24 5 0 9 7 9 15 0 15 -12 20 -23 9z"/>
<path d="M3304 3704 c1 -7 5 -17 9 -20 12 -12 8 -24 -8 -24 -8 0 -15 -4 -15
-9 0 -5 9 -7 19 -4 26 7 34 60 10 66 -10 3 -16 -1 -15 -9z"/>
<path d="M3400 3708 c0 -4 4 -8 9 -8 10 0 9 -19 -2 -37 -5 -9 -2 -13 8 -13 12
0 15 -6 10 -20 -4 -11 -2 -20 4 -20 6 0 11 5 11 10 0 6 8 10 18 11 13 0 11 3
-6 10 -13 5 -23 16 -21 26 3 36 -1 50 -16 50 -8 0 -15 -4 -15 -9z"/>
<path d="M3110 3660 c0 -5 5 -10 11 -10 5 0 7 5 4 10 -3 6 -8 10 -11 10 -2 0
-4 -4 -4 -10z"/>
<path d="M4340 3585 c0 -8 4 -15 10 -15 5 0 7 7 4 15 -4 8 -8 15 -10 15 -2 0
-4 -7 -4 -15z"/>
<path d="M6840 3574 c0 -8 5 -12 10 -9 6 3 10 10 10 16 0 5 -4 9 -10 9 -5 0
-10 -7 -10 -16z"/>
<path d="M3993 3533 c-18 -7 -16 -23 2 -23 8 0 15 7 15 15 0 8 -1 15 -2 14 -2
0 -9 -3 -15 -6z"/>
<path d="M6675 3340 c-3 -5 -1 -10 4 -10 6 0 11 5 11 10 0 6 -2 10 -4 10 -3 0
-8 -4 -11 -10z"/>
<path d="M4440 3218 c0 -9 5 -20 10 -23 13 -8 13 5 0 25 -8 13 -10 13 -10 -2z"/>
<path d="M6610 3179 c0 -5 5 -7 10 -4 6 3 10 8 10 11 0 2 -4 4 -10 4 -5 0 -10
-5 -10 -11z"/>
<path d="M4456 3123 c-6 -14 -5 -15 5 -6 7 7 10 15 7 18 -3 3 -9 -2 -12 -12z"/>
<path d="M6590 3105 c0 -8 4 -15 10 -15 5 0 7 7 4 15 -4 8 -8 15 -10 15 -2 0
-4 -7 -4 -15z"/>
<path d="M6546 3075 c4 -8 8 -15 10 -15 2 0 4 7 4 15 0 8 -4 15 -10 15 -5 0
-7 -7 -4 -15z"/>
<path d="M6573 3054 c-8 -22 13 -42 29 -26 9 9 8 12 -6 12 -15 0 -16 3 -6 15
9 11 9 15 1 15 -6 0 -14 -7 -18 -16z"/>
<path d="M6510 2974 c0 -8 5 -12 10 -9 6 4 8 11 5 16 -9 14 -15 11 -15 -7z"/>
<path d="M6416 2866 c3 -9 11 -16 16 -16 13 0 5 23 -10 28 -7 2 -10 -2 -6 -12z"/>
<path d="M6320 2666 c0 -2 7 -7 16 -10 8 -3 12 -2 9 4 -6 10 -25 14 -25 6z"/>
<path d="M6218 2653 c7 -3 16 -2 19 1 4 3 -2 6 -13 5 -11 0 -14 -3 -6 -6z"/>
<path d="M6140 2630 c-17 -11 -8 -23 14 -18 9 2 12 8 8 15 -5 8 -13 9 -22 3z"/>
<path d="M6145 2589 c-10 -15 3 -25 16 -12 7 7 7 13 1 17 -6 3 -14 1 -17 -5z"/>
<path d="M6181 2584 c0 -11 3 -14 6 -6 3 7 2 16 -1 19 -3 4 -6 -2 -5 -13z"/>
<path d="M6130 2541 c0 -6 4 -13 10 -16 6 -3 7 1 4 9 -7 18 -14 21 -14 7z"/>
<path d="M6070 2514 c0 -8 6 -11 15 -8 8 4 15 9 15 13 0 4 -7 8 -15 8 -8 0
-15 -6 -15 -13z"/>
<path d="M6170 2500 c0 -5 7 -7 16 -3 9 3 19 1 23 -6 5 -8 12 -7 27 4 18 13
16 14 -23 15 -24 0 -43 -4 -43 -10z"/>
<path d="M6065 2480 c-3 -5 -3 -10 2 -11 4 0 16 -2 26 -4 15 -3 16 -1 6 11
-14 16 -25 18 -34 4z"/>
<path d="M5986 2457 c4 -23 14 -36 14 -19 0 20 16 13 28 -10 11 -23 11 -23 11
4 1 28 -12 41 -40 43 -12 1 -16 -5 -13 -18z"/>
<path d="M5925 2460 c3 -5 8 -10 11 -10 2 0 4 5 4 10 0 6 -5 10 -11 10 -5 0
-7 -4 -4 -10z"/>
<path d="M5920 2410 c6 -11 15 -18 21 -15 5 4 9 -1 9 -9 0 -9 4 -16 10 -16 13
0 1 32 -18 48 -24 18 -34 15 -22 -8z"/>
<path d="M5670 2391 c0 -26 15 -35 17 -11 1 11 -2 22 -8 25 -5 4 -9 -3 -9 -14z"/>
<path d="M5760 2394 c0 -8 5 -12 10 -9 6 3 10 10 10 16 0 5 -4 9 -10 9 -5 0
-10 -7 -10 -16z"/>
<path d="M5790 2380 c0 -5 5 -10 11 -10 5 0 7 5 4 10 -3 6 -8 10 -11 10 -2 0
-4 -4 -4 -10z"/>
<path d="M4335 2370 c3 -5 8 -10 11 -10 2 0 4 5 4 10 0 6 -5 10 -11 10 -5 0
-7 -4 -4 -10z"/>
<path d="M5410 2335 c0 -8 2 -15 4 -15 2 0 6 7 10 15 3 8 1 15 -4 15 -6 0 -10
-7 -10 -15z"/>
<path d="M5301 2294 c0 -11 3 -14 6 -6 3 7 2 16 -1 19 -3 4 -6 -2 -5 -13z"/>
<path d="M5395 2290 c-3 -5 1 -10 9 -10 9 0 16 5 16 10 0 6 -4 10 -9 10 -6 0
-13 -4 -16 -10z"/>
<path d="M5626 2254 c-5 -14 -4 -15 9 -4 17 14 19 20 6 20 -5 0 -12 -7 -15
-16z"/>
<path d="M5336 2245 c4 -8 10 -12 15 -9 11 6 2 24 -11 24 -5 0 -7 -7 -4 -15z"/>
<path d="M5110 2246 c0 -9 30 -14 35 -6 4 6 -3 10 -14 10 -12 0 -21 -2 -21 -4z"/>
<path d="M4754 2214 c-1 -13 2 -24 7 -24 11 0 12 37 2 43 -5 3 -9 -6 -9 -19z"/>
<path d="M5166 2225 c4 -8 10 -12 15 -9 14 8 10 24 -6 24 -9 0 -12 -6 -9 -15z"/>
<path d="M5295 2230 c3 -5 8 -10 11 -10 2 0 4 5 4 10 0 6 -5 10 -11 10 -5 0
-7 -4 -4 -10z"/>
<path d="M5635 2230 c-3 -5 -1 -10 4 -10 6 0 11 5 11 10 0 6 -2 10 -4 10 -3 0
-8 -4 -11 -10z"/>
<path d="M5297 2203 c-4 -3 -7 -11 -7 -17 0 -6 5 -5 12 2 6 6 9 14 7 17 -3 3
-9 2 -12 -2z"/>
<path d="M5351 2194 c0 -11 3 -14 6 -6 3 7 2 16 -1 19 -3 4 -6 -2 -5 -13z"/>
<path d="M8432 6971 c-11 -6 -10 -10 0 -19 11 -8 14 -7 14 9 0 10 0 19 -1 19
0 0 -6 -4 -13 -9z"/>
<path d="M8651 6961 c-8 -5 -9 -11 -3 -15 5 -3 15 1 22 9 14 16 3 20 -19 6z"/>
<path d="M8925 6890 c-3 -5 -1 -10 4 -10 6 0 11 5 11 10 0 6 -2 10 -4 10 -3 0
-8 -4 -11 -10z"/>
<path d="M8286 6861 c-12 -5 -15 -10 -9 -14 6 -4 16 0 23 8 14 17 13 17 -14 6z"/>
<path d="M8246 6815 c-3 -8 -1 -15 4 -15 13 0 22 18 11 24 -5 3 -11 -1 -15 -9z"/>
<path d="M8280 6820 c0 -5 5 -10 10 -10 6 0 10 5 10 10 0 6 -4 10 -10 10 -5 0
-10 -4 -10 -10z"/>
<path d="M9080 6820 c0 -5 5 -10 11 -10 5 0 7 5 4 10 -3 6 -8 10 -11 10 -2 0
-4 -4 -4 -10z"/>
<path d="M8175 6711 c-3 -6 -18 -8 -34 -6 -24 3 -28 0 -24 -16 7 -26 25 -24
53 6 13 14 21 25 17 25 -3 0 -8 -4 -12 -9z"/>
<path d="M7385 6100 c-3 -5 -1 -10 4 -10 6 0 11 5 11 10 0 6 -2 10 -4 10 -3 0
-8 -4 -11 -10z"/>
<path d="M7235 5659 c-4 -6 -4 -13 -1 -16 8 -8 36 5 36 17 0 13 -27 13 -35 -1z"/>
<path d="M8215 5590 c-3 -5 -1 -10 4 -10 6 0 11 5 11 10 0 6 -2 10 -4 10 -3 0
-8 -4 -11 -10z"/>
<path d="M7970 5515 c-8 -9 -8 -15 -2 -15 12 0 26 19 19 26 -2 2 -10 -2 -17
-11z"/>
<path d="M7935 5480 c3 -5 -1 -10 -9 -10 -9 0 -16 -5 -16 -10 0 -7 6 -7 20 0
21 11 27 30 9 30 -5 0 -7 -4 -4 -10z"/>
<path d="M7835 5390 c-3 -5 -1 -10 4 -10 6 0 11 5 11 10 0 6 -2 10 -4 10 -3 0
-8 -4 -11 -10z"/>
<path d="M2246 6825 c4 -10 1 -21 -7 -26 -18 -11 -20 -41 -2 -58 12 -10 13 -8
7 13 -4 17 -1 31 10 42 18 18 17 35 -2 42 -8 2 -10 -2 -6 -13z"/>
<path d="M2345 6820 c-3 -5 -2 -10 4 -10 5 0 13 5 16 10 3 6 2 10 -4 10 -5 0
-13 -4 -16 -10z"/>
<path d="M2170 6765 c-11 -13 -10 -14 3 -9 15 5 15 2 6 -25 -6 -17 -17 -31
-25 -31 -8 0 -14 -10 -14 -22 0 -19 -2 -20 -10 -8 -8 13 -15 12 -48 -7 -36
-20 -40 -21 -55 -5 -10 9 -17 11 -17 5 0 -6 6 -13 13 -16 9 -3 6 -15 -10 -48
-16 -31 -19 -45 -11 -51 7 -3 15 -5 19 -2 4 2 10 0 14 -6 3 -5 -2 -10 -12 -10
-10 0 -24 -9 -31 -21 -17 -27 -27 -18 -12 10 9 17 8 21 -4 21 -8 0 -18 -5 -22
-12 -5 -7 -3 -8 6 -3 9 5 11 4 6 -4 -4 -6 -12 -8 -18 -5 -10 7 -28 -13 -28
-31 0 -5 4 -4 9 4 5 8 11 9 15 3 3 -6 -4 -19 -17 -29 -21 -16 -22 -20 -10 -32
8 -7 12 -16 8 -19 -3 -4 -9 -2 -13 4 -4 6 -15 14 -26 17 -14 6 -17 4 -12 -9 3
-8 6 -18 6 -20 0 -2 7 -4 15 -4 22 0 18 -15 -8 -27 -17 -8 -25 -7 -35 4 -16
16 -33 8 -26 -12 4 -9 -3 -18 -17 -24 -13 -5 -20 -10 -15 -10 5 -1 4 -7 -1
-13 -19 -25 -23 -76 -7 -93 8 -8 12 -20 8 -26 -4 -8 -9 -7 -15 2 -6 11 -11 11
-21 1 -8 -8 -8 -12 -1 -12 6 0 14 -8 18 -17 5 -15 4 -16 -6 -5 -7 6 -17 12
-23 12 -6 0 -5 -5 2 -12 16 -16 15 -25 -3 -25 -8 0 -15 9 -15 19 0 21 -13 23
-29 5 -8 -10 -7 -17 1 -25 9 -9 9 -12 -2 -12 -11 -1 -9 -5 5 -16 16 -12 17
-17 7 -23 -8 -5 -13 -11 -13 -15 3 -18 0 -20 -9 -6 -15 23 -32 -8 -18 -33 9
-17 8 -19 -11 -14 -15 3 -21 1 -18 -6 5 -16 40 -9 50 9 4 8 18 14 30 14 18 0
19 -2 7 -10 -10 -7 -11 -10 -2 -10 7 0 18 12 24 28 17 40 39 62 60 62 11 0 17
4 14 9 -3 5 3 20 14 32 16 19 19 20 13 5 -4 -13 -3 -17 5 -12 7 4 12 2 12 -4
0 -7 -6 -10 -13 -7 -9 3 -13 -2 -12 -14 2 -34 14 -32 31 5 17 35 17 37 -2 51
-18 14 -17 14 16 10 33 -5 37 -3 52 30 8 19 12 38 7 41 -5 3 -9 10 -9 15 0 6
5 7 11 3 7 -4 10 -1 7 7 -8 21 10 49 32 49 11 0 19 3 18 8 -1 4 6 20 17 36 18
28 18 29 0 42 -10 8 -16 17 -12 20 4 4 2 13 -3 19 -8 9 -4 14 15 17 17 4 25 1
25 -9 0 -8 -5 -11 -11 -7 -7 4 -7 -1 1 -15 13 -25 37 -23 32 2 -2 11 3 15 17
12 15 -3 20 1 19 13 -3 34 2 53 12 47 6 -3 10 1 10 10 0 9 -5 13 -11 9 -7 -4
-7 1 1 16 7 13 15 19 19 14 3 -5 16 -10 29 -10 17 -1 22 4 22 22 0 13 -5 24
-11 24 -5 0 -7 5 -4 11 4 6 13 8 20 5 15 -5 49 27 39 37 -4 4 -2 13 4 20 16
19 3 30 -17 15 -13 -10 -14 -10 -3 2 16 19 15 33 -2 27 -10 -4 -13 -1 -9 9 3
8 0 20 -6 28 -6 7 -8 16 -4 19 3 4 2 7 -4 7 -6 0 -16 -7 -23 -15z m-56 -116
c-6 -10 -44 -18 -44 -10 0 12 8 17 29 17 11 0 18 -3 15 -7z m-4 -38 c0 -13
-39 -20 -47 -9 -3 6 -1 8 4 5 6 -4 14 0 17 9 6 15 26 11 26 -5z m-29 -56 c17
11 9 -2 -13 -21 -13 -12 -18 -13 -12 -4 4 8 8 24 7 35 -1 16 -1 17 3 2 3 -9
10 -15 15 -12z m-21 -55 c0 -5 -4 -10 -10 -10 -5 0 -10 5 -10 10 0 6 5 10 10
10 6 0 10 -4 10 -10z m16 -27 c-10 -10 -19 5 -10 18 6 11 8 11 12 0 2 -7 1
-15 -2 -18z m-106 -39 c0 -8 -5 -12 -10 -9 -6 4 -8 11 -5 16 9 14 15 11 15 -7z
m10 -44 c0 -5 -2 -10 -4 -10 -3 0 -8 5 -11 10 -3 6 -1 10 4 10 6 0 11 -4 11
-10z m-54 -51 c-12 -10 -23 -15 -26 -12 -3 3 1 8 8 10 6 3 12 13 12 24 0 16 2
17 13 7 12 -10 10 -15 -7 -29z m-51 -27 c-3 -3 -11 0 -18 7 -9 10 -8 11 6 5
10 -3 15 -9 12 -12z m65 8 c0 -5 -5 -10 -11 -10 -5 0 -7 5 -4 10 3 6 8 10 11
10 2 0 4 -4 4 -10z m-64 -45 c-1 -8 -5 -17 -8 -20 -8 -9 2 -45 13 -45 5 0 9
-5 9 -12 0 -6 -11 -1 -25 12 -13 12 -21 28 -17 34 7 11 8 16 11 36 0 6 5 10
10 10 5 0 8 -7 7 -15z m56 -52 c-6 -34 -17 -36 -19 -4 -1 17 3 28 11 28 8 0
11 -9 8 -24z m-114 -66 c5 -24 -15 -21 -21 4 -3 13 -1 19 6 16 7 -2 13 -11 15
-20z m-58 -55 c0 -5 -7 -9 -15 -9 -8 0 -12 4 -9 9 3 4 9 8 15 8 5 0 9 -4 9 -8z"/>
<path d="M2126 6741 c-3 -5 1 -14 8 -20 12 -10 13 -8 9 8 -6 23 -9 25 -17 12z"/>
<path d="M2257 6718 c-6 -21 9 -41 24 -32 8 5 0 42 -11 49 -4 3 -10 -5 -13
-17z"/>
<path d="M2244 6659 c-8 -14 14 -19 25 -6 8 10 7 14 -5 14 -8 0 -17 -4 -20 -8z"/>
<path d="M1761 6496 c-10 -11 -9 -14 1 -12 14 2 23 15 15 22 -2 2 -10 -2 -16
-10z"/>
<path d="M2700 6235 c12 -15 30 -12 30 6 0 5 -10 9 -21 9 -18 0 -19 -2 -9 -15z"/>
<path d="M1786 6085 c-9 -9 -16 -22 -15 -28 0 -9 2 -8 6 1 2 6 16 12 30 12 15
0 23 5 21 12 -7 19 -24 20 -42 3z"/>
<path d="M2650 6051 c0 -25 6 -27 13 -6 4 8 2 17 -3 20 -6 4 -10 -3 -10 -14z"/>
<path d="M1820 6050 c0 -5 -6 -10 -14 -10 -15 0 -26 -29 -26 -69 0 -24 1 -24
14 -5 8 10 11 20 6 22 -13 5 12 42 27 42 7 0 13 5 13 11 0 5 5 7 12 3 7 -4 8
-3 4 4 -9 15 -36 16 -36 2z"/>
<path d="M1755 6020 c-3 -5 -2 -10 4 -10 5 0 13 5 16 10 3 6 2 10 -4 10 -5 0
-13 -4 -16 -10z"/>
<path d="M1837 6023 c-10 -9 -9 -23 2 -23 5 0 11 7 15 15 5 15 -5 20 -17 8z"/>
<path d="M1703 6003 c-12 -2 -26 -17 -33 -34 -13 -30 -13 -30 -34 -11 -34 31
-50 38 -43 19 4 -10 1 -17 -5 -17 -6 0 -1 -12 13 -27 13 -14 19 -23 13 -20
-17 10 -26 -21 -14 -43 14 -25 13 -30 -6 -30 -8 0 -13 4 -10 9 3 5 -1 14 -9
21 -13 11 -14 10 -9 -4 3 -9 1 -16 -5 -16 -7 0 -10 -18 -8 -49 3 -38 -1 -51
-15 -60 -10 -6 -18 -18 -18 -26 0 -18 -11 -19 -29 -2 -9 7 -11 7 -8 1 4 -7 0
-14 -8 -18 -8 -3 -15 -13 -15 -22 0 -10 3 -14 6 -11 4 3 16 0 28 -8 27 -20 33
-19 39 5 3 11 11 20 17 20 7 0 10 -6 7 -14 -3 -8 -3 -17 1 -20 10 -10 11 -37
1 -30 -5 3 -9 -1 -9 -8 0 -8 -3 -9 -8 -3 -4 6 -18 11 -32 10 -28 0 -40 -30
-19 -49 9 -8 11 -7 6 6 -3 10 1 19 10 22 24 10 26 0 7 -28 -15 -25 -18 -25
-35 -11 -16 15 -20 15 -46 -1 -15 -10 -29 -18 -30 -19 -1 0 -5 -16 -8 -34 -5
-29 -4 -32 8 -22 25 20 30 -17 7 -54 -15 -24 -26 -32 -40 -28 -26 7 -25 -11 2
-37 32 -30 45 -20 50 38 1 7 7 11 14 8 8 -3 16 -1 19 5 4 5 -1 12 -9 15 -9 3
-16 11 -16 16 0 6 7 4 17 -3 14 -13 16 -11 11 11 -3 14 -9 34 -13 44 -6 14 -5
17 3 12 7 -4 12 -2 12 3 0 14 -13 14 -26 1 -6 -6 -10 -3 -10 9 0 24 42 35 50
14 3 -8 10 -12 15 -8 5 3 13 0 17 -6 4 -8 3 -9 -4 -5 -7 4 -12 2 -12 -3 0 -6
0 -13 0 -16 0 -3 2 -5 5 -5 3 1 13 -6 21 -15 19 -19 41 -21 25 -2 -6 8 -8 17
-4 20 3 4 1 7 -6 7 -8 0 -7 7 4 24 9 13 14 29 13 36 -2 7 7 16 20 19 13 3 23
9 23 14 -2 22 1 26 22 30 l22 4 -23 8 c-17 6 -20 11 -12 20 8 9 6 14 -5 19 -8
3 -15 10 -15 17 0 6 6 9 14 6 8 -3 16 2 19 14 3 10 11 19 17 19 8 0 9 -7 5
-17 -16 -40 -16 -53 1 -70 17 -17 17 -16 11 21 -5 34 -4 38 13 33 13 -3 17 -1
13 9 -3 8 -8 12 -12 10 -3 -2 -6 11 -5 29 1 24 -2 32 -11 29 -7 -3 -16 0 -20
5 -3 6 -10 9 -15 6 -4 -3 -10 4 -13 15 -3 13 1 24 14 30 19 11 20 10 23 -12 0
-7 15 -14 31 -16 22 -2 26 0 15 7 -8 5 -18 7 -22 5 -4 -3 -8 4 -8 15 0 11 -8
25 -17 31 -17 11 -17 11 0 6 9 -3 17 -1 17 4 0 5 11 12 24 16 25 6 43 43 23
45 -7 0 -3 4 8 8 29 12 38 -18 13 -45 -13 -14 -16 -24 -9 -29 6 -3 15 -4 19
-1 4 2 8 -4 8 -15 0 -10 -4 -19 -8 -19 -4 0 -4 -8 -1 -17 5 -12 2 -15 -8 -11
-19 7 -53 -17 -44 -31 3 -6 11 -11 17 -11 11 0 58 50 58 62 0 4 8 5 18 2 10
-4 13 -2 7 3 -20 17 -33 69 -22 89 18 31 16 43 -9 63 -17 13 -20 21 -12 24 15
6 2 6 -29 0z m-43 -84 c0 -10 -34 -29 -52 -29 -8 0 -6 4 5 11 9 5 17 16 17 24
0 9 6 12 15 9 8 -4 15 -10 15 -15z m-66 -184 c-3 -14 -13 -25 -21 -25 -11 0
-13 7 -8 33 4 17 10 36 13 41 9 16 23 -23 16 -49z"/>
<path d="M1779 5923 c0 -5 -2 -16 -4 -26 -2 -11 -1 -16 3 -13 8 8 14 46 7 46
-3 0 -5 -3 -6 -7z"/>
<path d="M1685 5840 c3 -5 11 -10 16 -10 6 0 7 5 4 10 -3 6 -11 10 -16 10 -6
0 -7 -4 -4 -10z"/>
<path d="M1505 5749 c-9 -14 -2 -20 14 -10 8 6 9 11 3 15 -6 3 -14 1 -17 -5z"/>
<path d="M1443 5619 c1 -31 3 -34 14 -23 8 7 13 17 13 21 -1 4 7 11 17 15 13
6 10 7 -9 3 -16 -3 -28 0 -31 8 -2 6 -4 -4 -4 -24z"/>
<path d="M1560 5520 c0 -5 5 -10 12 -10 6 0 3 -7 -8 -16 -10 -8 -13 -13 -6 -9
6 3 12 1 12 -4 0 -26 17 -8 18 19 0 20 -4 30 -14 30 -8 0 -14 -4 -14 -10z"/>
<path d="M1470 5414 c0 -14 3 -14 15 -4 8 7 15 14 15 16 0 2 -7 4 -15 4 -8 0
-15 -7 -15 -16z"/>
<path d="M1445 5382 c-16 -12 -16 -32 0 -32 8 0 15 9 15 20 0 22 -1 23 -15 12z"/>
<path d="M1310 5320 c0 -5 5 -10 10 -10 6 0 10 5 10 10 0 6 -4 10 -10 10 -5 0
-10 -4 -10 -10z"/>
<path d="M1431 5317 c-7 -9 -11 -24 -9 -34 3 -16 5 -15 17 5 15 29 10 50 -8
29z"/>
<path d="M1352 5263 c-17 -18 -8 -45 13 -37 15 6 21 39 8 47 -5 3 -14 -2 -21
-10z"/>
<path d="M1320 5170 c0 -5 5 -10 10 -10 6 0 10 5 10 10 0 6 -4 10 -10 10 -5 0
-10 -4 -10 -10z"/>
<path d="M1398 5153 c7 -3 16 -2 19 1 4 3 -2 6 -13 5 -11 0 -14 -3 -6 -6z"/>
<path d="M1304 5105 c-4 -8 -10 -13 -14 -10 -5 3 -6 -4 -3 -15 3 -11 9 -20 14
-20 5 0 12 0 16 0 4 0 8 13 9 30 2 31 -12 41 -22 15z"/>
<path d="M1230 5046 c0 -22 3 -27 11 -19 8 8 8 16 0 30 -9 16 -10 14 -11 -11z"/>
<path d="M1385 4990 c3 -5 11 -10 16 -10 6 0 7 5 4 10 -3 6 -11 10 -16 10 -6
0 -7 -4 -4 -10z"/>
<path d="M1263 4974 c-3 -8 -1 -20 6 -27 8 -8 11 -4 11 16 0 30 -7 35 -17 11z"/>
<path d="M1225 4882 c-3 -8 -3 -17 -1 -20 9 -8 36 7 36 21 0 18 -28 17 -35 -1z"/>
<path d="M2417 4879 c3 -12 1 -24 -4 -28 -6 -3 -7 -14 -2 -26 4 -11 8 -14 8
-6 1 8 8 19 17 26 14 9 14 16 5 33 -15 28 -31 29 -24 1z"/>
<path d="M1210 4830 c0 -5 5 -10 10 -10 6 0 10 5 10 10 0 6 -4 10 -10 10 -5 0
-10 -4 -10 -10z"/>
<path d="M1185 4780 c-3 -5 1 -10 9 -10 9 0 16 5 16 10 0 6 -4 10 -9 10 -6 0
-13 -4 -16 -10z"/>
<path d="M1272 4758 c2 -6 16 -12 31 -14 35 -4 34 2 -4 15 -22 8 -29 7 -27 -1z"/>
<path d="M1178 4733 c7 -3 16 -2 19 1 4 3 -2 6 -13 5 -11 0 -14 -3 -6 -6z"/>
<path d="M1242 4708 c2 -40 5 -43 27 -29 10 6 10 10 1 16 -6 4 -15 17 -20 29
-8 17 -9 14 -8 -16z"/>
<path d="M1310 4709 c0 -5 5 -7 10 -4 6 3 10 8 10 11 0 2 -4 4 -10 4 -5 0 -10
-5 -10 -11z"/>
<path d="M1147 4654 c-4 -4 -7 -17 -7 -28 1 -19 1 -20 11 -3 11 19 8 43 -4 31z"/>
<path d="M1100 4589 c0 -4 9 -9 20 -12 12 -3 20 0 20 7 0 6 -9 12 -20 12 -11
0 -20 -3 -20 -7z"/>
<path d="M2320 4555 c-11 -13 -10 -14 4 -9 9 3 16 10 16 15 0 13 -6 11 -20 -6z"/>
<path d="M1065 4470 c-16 -7 -17 -9 -3 -9 9 -1 20 4 23 9 7 11 7 11 -20 0z"/>
<path d="M1020 4340 c8 -5 24 -9 35 -9 l20 0 -20 9 c-11 5 -27 9 -35 9 -13 1
-13 0 0 -9z"/>
<path d="M1010 4299 c0 -5 5 -7 10 -4 6 3 10 8 10 11 0 2 -4 4 -10 4 -5 0 -10
-5 -10 -11z"/>
<path d="M2223 4279 c-6 -6 -9 -18 -6 -25 8 -22 18 -16 19 11 2 29 2 29 -13
14z"/>
<path d="M930 4238 c0 -4 4 -8 9 -8 6 0 12 4 15 8 3 5 -1 9 -9 9 -8 0 -15 -4
-15 -9z"/>
<path d="M1010 4241 c0 -7 -4 -9 -10 -6 -5 3 -10 1 -10 -5 0 -7 7 -10 15 -6
10 4 15 -1 15 -14 0 -11 4 -20 8 -20 12 0 8 38 -6 52 -9 9 -12 9 -12 -1z"/>
<path d="M980 4193 c0 -7 -8 -13 -17 -13 -16 0 -16 -1 0 -17 22 -23 45 -4 28
24 -6 10 -11 12 -11 6z"/>
<path d="M2170 4120 c0 -5 5 -10 11 -10 5 0 7 5 4 10 -3 6 -8 10 -11 10 -2 0
-4 -4 -4 -10z"/>
<path d="M956 4111 c-3 -5 1 -11 9 -14 9 -4 12 -1 8 9 -6 16 -10 17 -17 5z"/>
<path d="M1016 4101 c-4 -7 -5 -15 -2 -18 9 -9 19 4 14 18 -4 11 -6 11 -12 0z"/>
<path d="M2146 4091 c-3 -5 0 -13 7 -19 10 -8 13 -6 13 9 0 20 -11 25 -20 10z"/>
<path d="M947 4064 c-4 -4 -7 -14 -7 -23 0 -11 3 -12 11 -4 6 6 10 16 7 23 -2
6 -7 8 -11 4z"/>
<path d="M905 4040 c-3 -5 -1 -10 4 -10 6 0 11 5 11 10 0 6 -2 10 -4 10 -3 0
-8 -4 -11 -10z"/>
<path d="M1010 4040 c-9 -6 -10 -10 -3 -10 6 0 15 5 18 10 8 12 4 12 -15 0z"/>
<path d="M2188 4013 c7 -3 16 -2 19 1 4 3 -2 6 -13 5 -11 0 -14 -3 -6 -6z"/>
<path d="M936 3984 c-4 -9 -4 -19 -1 -22 2 -3 7 3 11 12 4 9 4 19 1 22 -2 3
-7 -3 -11 -12z"/>
<path d="M1007 3983 c-4 -3 -7 -11 -7 -17 0 -6 5 -5 12 2 6 6 9 14 7 17 -3 3
-9 2 -12 -2z"/>
<path d="M995 3909 c-4 -6 -5 -12 -2 -15 2 -3 7 2 10 11 7 17 1 20 -8 4z"/>
<path d="M881 3854 c0 -11 3 -14 6 -6 3 7 2 16 -1 19 -3 4 -6 -2 -5 -13z"/>
<path d="M970 3841 c0 -6 5 -13 10 -16 6 -3 10 1 10 9 0 9 -4 16 -10 16 -5 0
-10 -4 -10 -9z"/>
<path d="M893 3796 c-16 -7 -23 -19 -22 -36 2 -23 2 -24 6 -2 5 24 13 28 29
12 6 -6 10 -1 12 15 1 14 1 24 -1 24 -1 -1 -12 -6 -24 -13z"/>
<path d="M2036 3725 c-3 -8 -1 -15 4 -15 13 0 22 18 11 24 -5 3 -11 -1 -15 -9z"/>
<path d="M940 3656 c0 -2 8 -10 18 -17 15 -13 16 -12 3 4 -13 16 -21 21 -21
13z"/>
<path d="M860 3600 c0 -5 5 -10 10 -10 6 0 10 5 10 10 0 6 -4 10 -10 10 -5 0
-10 -4 -10 -10z"/>
<path d="M935 3580 c-3 -5 -5 -10 -3 -11 33 -8 38 -7 27 7 -14 17 -16 17 -24
4z"/>
<path d="M860 3515 c0 -8 2 -15 4 -15 2 0 6 7 10 15 3 8 1 15 -4 15 -6 0 -10
-7 -10 -15z"/>
<path d="M931 3486 c-9 -10 -8 -15 4 -20 10 -4 15 1 15 14 0 24 -4 25 -19 6z"/>
<path d="M930 3431 c0 -5 6 -14 14 -20 12 -10 13 -8 9 8 -5 21 -23 30 -23 12z"/>
<path d="M947 3360 c-3 -13 0 -20 9 -20 8 0 14 9 14 20 0 11 -4 20 -9 20 -5 0
-11 -9 -14 -20z"/>
<path d="M936 3285 c4 -8 13 -15 21 -15 13 0 13 3 3 15 -7 8 -16 15 -21 15 -5
0 -6 -7 -3 -15z"/>
<path d="M2992 3148 c-14 -14 -16 -42 -3 -34 7 5 23 46 17 46 -1 0 -7 -5 -14
-12z"/>
<path d="M955 3140 c3 -5 11 -10 16 -10 6 0 7 5 4 10 -3 6 -11 10 -16 10 -6 0
-7 -4 -4 -10z"/>
<path d="M990 3136 c0 -9 5 -16 10 -16 6 0 10 4 10 9 0 6 -4 13 -10 16 -5 3
-10 -1 -10 -9z"/>
<path d="M3087 3130 c-6 -23 1 -25 26 -6 22 17 22 26 -2 26 -10 0 -21 -9 -24
-20z"/>
<path d="M3500 3135 c7 -9 15 -13 17 -11 7 7 -7 26 -19 26 -6 0 -6 -6 2 -15z"/>
<path d="M3035 3130 c-3 -5 3 -10 14 -10 11 0 23 5 26 10 3 6 -3 10 -14 10
-11 0 -23 -4 -26 -10z"/>
<path d="M2865 3120 c-3 -5 3 -10 14 -10 11 0 23 5 26 10 3 6 -3 10 -14 10
-11 0 -23 -4 -26 -10z"/>
<path d="M2728 3083 c7 -3 16 -2 19 1 4 3 -2 6 -13 5 -11 0 -14 -3 -6 -6z"/>
<path d="M3435 3061 c-3 -5 -1 -12 4 -16 6 -3 7 -15 2 -28 -6 -15 -4 -26 5
-35 8 -7 12 -17 9 -23 -4 -5 1 -12 9 -15 9 -3 13 -11 10 -16 -4 -6 -1 -9 7 -6
8 3 16 13 18 24 2 10 8 22 15 26 8 6 7 8 -2 8 -7 0 -10 5 -7 10 3 6 1 10 -4
10 -6 0 -11 9 -11 19 0 33 -41 64 -55 42z m45 -56 c0 -8 -4 -17 -10 -20 -6 -4
-10 5 -10 20 0 15 4 24 10 20 6 -3 10 -12 10 -20z"/>
<path d="M3405 2981 c3 -5 -2 -12 -10 -14 -12 -4 -12 -5 1 -3 19 1 32 26 14
26 -6 0 -9 -4 -5 -9z"/>
<path d="M3415 2951 c-3 -5 -1 -12 5 -16 5 -3 10 1 10 9 0 18 -6 21 -15 7z"/>
<path d="M3517 2926 c-4 -10 -1 -13 9 -9 15 6 19 23 5 23 -5 0 -11 -7 -14 -14z"/>
<path d="M3528 2886 c-7 -34 5 -51 21 -32 8 10 9 16 1 21 -6 3 -8 10 -5 15 3
5 1 11 -4 14 -5 3 -11 -5 -13 -18z"/>
<path d="M875 2849 c-4 -6 -5 -12 -2 -15 2 -3 7 2 10 11 7 17 1 20 -8 4z"/>
<path d="M1060 2610 c0 -6 7 -10 15 -10 8 0 15 2 15 4 0 2 -7 6 -15 10 -8 3
-15 1 -15 -4z"/>
<path d="M3520 2454 c0 -8 5 -12 10 -9 6 3 10 10 10 16 0 5 -4 9 -10 9 -5 0
-10 -7 -10 -16z"/>
<path d="M3487 2440 c-3 -11 -2 -20 3 -20 12 0 21 28 11 35 -5 2 -11 -4 -14
-15z"/>
<path d="M1363 2423 c-4 -9 -1 -19 5 -21 7 -2 12 -10 12 -18 0 -8 7 -14 15
-14 18 0 20 41 3 58 -17 17 -27 15 -35 -5z"/>
<path d="M3520 2414 c0 -8 5 -12 10 -9 6 4 8 11 5 16 -9 14 -15 11 -15 -7z"/>
<path d="M1470 2370 c0 -5 7 -10 15 -10 8 0 15 5 15 10 0 6 -7 10 -15 10 -8 0
-15 -4 -15 -10z"/>
<path d="M1408 2343 c7 -3 16 -2 19 1 4 3 -2 6 -13 5 -11 0 -14 -3 -6 -6z"/>
<path d="M1470 2300 c0 -5 5 -10 10 -10 6 0 10 5 10 10 0 6 -4 10 -10 10 -5 0
-10 -4 -10 -10z"/>
<path d="M1590 2280 c0 -5 5 -10 10 -10 6 0 10 5 10 10 0 6 -4 10 -10 10 -5 0
-10 -4 -10 -10z"/>
<path d="M1725 2280 c-3 -5 -1 -10 4 -10 6 0 11 5 11 10 0 6 -2 10 -4 10 -3 0
-8 -4 -11 -10z"/>
<path d="M3384 2244 c3 -8 6 -18 6 -20 0 -2 5 -4 10 -4 16 0 11 27 -6 34 -12
5 -15 2 -10 -10z"/>
<path d="M3746 2237 c3 -10 9 -15 12 -12 3 3 0 11 -7 18 -10 9 -11 8 -5 -6z"/>
<path d="M1835 2210 c3 -5 11 -10 16 -10 6 0 7 5 4 10 -3 6 -11 10 -16 10 -6
0 -7 -4 -4 -10z"/>
<path d="M1857 2151 c3 -12 9 -21 14 -21 14 0 11 16 -5 29 -12 10 -13 8 -9 -8z"/>
<path d="M1974 2116 c1 -16 8 -21 28 -21 24 -1 25 1 12 19 -19 27 -41 29 -40
2z"/>
<path d="M1890 2110 c0 -5 5 -10 11 -10 5 0 7 5 4 10 -3 6 -8 10 -11 10 -2 0
-4 -4 -4 -10z"/>
<path d="M6400 6850 c0 -5 5 -10 10 -10 6 0 10 5 10 10 0 6 -4 10 -10 10 -5 0
-10 -4 -10 -10z"/>
<path d="M7450 4279 c0 -5 5 -7 10 -4 6 3 10 8 10 11 0 2 -4 4 -10 4 -5 0 -10
-5 -10 -11z"/>
<path d="M7199 3938 c-1 -2 -3 -13 -4 -25 -2 -25 2 -28 25 -13 13 8 12 10 -4
10 -12 0 -16 5 -12 15 4 12 0 23 -5 13z"/>
<path d="M7160 3909 c0 -5 5 -7 10 -4 6 3 10 8 10 11 0 2 -4 4 -10 4 -5 0 -10
-5 -10 -11z"/>
<path d="M7160 3861 c0 -6 5 -13 10 -16 6 -3 10 1 10 9 0 9 -4 16 -10 16 -5 0
-10 -4 -10 -9z"/>
<path d="M8440 3006 c0 -2 7 -7 16 -10 8 -3 12 -2 9 4 -6 10 -25 14 -25 6z"/>
</g>
</svg>
